<svg xmlns="http://www.w3.org/2000/svg" width="629.572" height="601.576" viewBox="0 0 629.572 601.576">
  <g id="Navigation-amico" transform="translate(-17.085 -28.149)">
    <g id="freepik--Shadows--inject-33" transform="translate(17.085 261.74)">
      <path id="freepik--Shadow--inject-33" d="M428.2,556.734,640.773,434c4.658-2.688,4.658-7.043,0-9.73L250.023,199.653a18.661,18.661,0,0,0-16.869,0L20.579,322.314c-4.658,2.756-4.658,7.056,0,9.744L411.343,556.706a18.633,18.633,0,0,0,16.856.027Z" transform="translate(-17.085 -197.638)" fill="rgba(224,224,224,0.05)"/>
      <path id="freepik--shadow--inject-33-2" data-name="freepik--shadow--inject-33" d="M443.212,481.123a5.43,5.43,0,0,1-4.479-2.522l-35.172-49.354a5.237,5.237,0,0,1-.689-5.609,4.879,4.879,0,0,1,4.452-2.577,7.553,7.553,0,0,1,1.612.193L496.7,442.12c4.217,1.006,4.3,3.983,4.231,4.865s-.662,3.8-4.989,4.135l-43.359,2.756-4.355,22.644a5.168,5.168,0,0,1-5.03,4.589Z" transform="translate(128.628 -113.138)" fill="#e0e0e0"/>
    </g>
    <g id="freepik--Signal--inject-33" transform="translate(379.341 135.044)">
      <g id="freepik--signal--inject-33-2" data-name="freepik--signal--inject-33">
        <path id="Path_60" data-name="Path 60" d="M317.027,108.329a2.3,2.3,0,0,0-1.378-1.833,7.236,7.236,0,0,0-6.56,0,2.343,2.343,0,0,0-1.378,1.833h0V320.807h9.275V108.329Z" transform="translate(-269.423 -105.71)" fill="#37474f"/>
        <path id="Path_61" data-name="Path 61" d="M317.012,108.329c0-1.378-2.067-2.619-4.631-2.619s-4.631,1.171-4.631,2.619,2.067,2.632,4.631,2.632S317.012,109.776,317.012,108.329Z" transform="translate(-269.408 -105.709)" fill="#455a64"/>
        <path id="Path_62" data-name="Path 62" d="M349.53,151.021l-60.5-34.951-9.1,5.251,9.1,15.753,60.5,34.965Z" transform="translate(-279.93 -101.791)" fill="#3c8cdd"/>
        <g id="Group_14" data-name="Group 14" transform="translate(0 14.279)" opacity="0.4">
          <path id="Path_63" data-name="Path 63" d="M349.53,151.021l-60.5-34.951-9.1,5.251,9.1,15.753,60.5,34.965Z" transform="translate(-279.93 -116.07)"/>
        </g>
        <path id="Path_64" data-name="Path 64" d="M286.53,116.792l4.548-2.632,60.586,35.007-4.631,2.577Z" transform="translate(-277.434 -102.513)" fill="#3c8cdd"/>
        <g id="Group_15" data-name="Group 15" transform="translate(9.096 11.647)" opacity="0.3">
          <path id="Path_65" data-name="Path 65" d="M286.53,116.792l4.548-2.632,60.586,35.007-4.631,2.577Z" transform="translate(-286.53 -114.16)"/>
        </g>
        <path id="Path_66" data-name="Path 66" d="M335.061,160.578l-4.631,2.577V142.137l4.631-2.577Z" transform="translate(-260.83 -92.907)" fill="#3c8cdd"/>
        <path id="Path_67" data-name="Path 67" d="M335.061,160.578l-4.631,2.577V142.137l4.631-2.577Z" transform="translate(-260.83 -92.907)" opacity="0.55"/>
      </g>
    </g>
    <g id="freepik--Plants--inject-33" transform="translate(591.406 379.125)">
      <g id="freepik--plants--inject-33-2" data-name="freepik--plants--inject-33">
        <path id="Path_68" data-name="Path 68" d="M441.2,359.053l-7.4-6.381s.289-22.823,6.96-41.181c9.4-25.814,29.315-31.465,35.392-27.564s6.078,12.114-8.807,25.194C458.553,316.866,445.79,334.3,441.2,359.053Z" transform="translate(-433.8 -282.81)" fill="#3c8cdd"/>
        <g id="Group_16" data-name="Group 16" opacity="0.15">
          <path id="Path_69" data-name="Path 69" d="M441.2,359.053l-7.4-6.381s.289-22.823,6.96-41.181c9.4-25.814,29.315-31.465,35.392-27.564s6.078,12.114-8.807,25.194C458.553,316.866,445.79,334.3,441.2,359.053Z" transform="translate(-433.8 -282.81)"/>
        </g>
        <path id="Path_70" data-name="Path 70" d="M438.617,346.867h.083a.606.606,0,0,0,.634-.579c1.378-25.593,16.759-50.994,30.155-59.787a.593.593,0,0,0,.179-.827.62.62,0,0,0-.841-.179c-13.658,8.972-29.273,34.745-30.707,60.724a.606.606,0,0,0,.5.648Z" transform="translate(-432.167 -281.829)" fill="#fff"/>
        <path id="Path_71" data-name="Path 71" d="M461.6,369.928c1.171,1.006,4.217-.124,5.389-.62a12.6,12.6,0,0,0,5.113-3.983,11.991,11.991,0,0,0,2.426-6.891,26.861,26.861,0,0,0-.165-3.942l-.331-3.859a9.468,9.468,0,0,1,.179-3.79c.8-2.426,3.363-3.749,5.664-4.865,2.563-1.24,5.306-2.991,5.885-6a10.805,10.805,0,0,0-1.378-6.808c-1.089-2.109-2.481-4.052-3.4-6.216a7.456,7.456,0,0,1-.606-4.975,7.733,7.733,0,0,1,1.585-2.756,42.276,42.276,0,0,0,4.341-5.237,6.023,6.023,0,0,0,.11-6.354,6.974,6.974,0,0,0-4.92-2.288,11.949,11.949,0,0,0-5.141.758c-5.292,1.723-9.124,6.891-14.581,7.9a49.874,49.874,0,0,1-6.422.3,7.759,7.759,0,0,0-5.733,2.481c-2.577,3.349,0,8.6-2.095,12.294-1.847,3.266-5.513,3.942-8.007,6.712a7.566,7.566,0,0,0-1.778,4.4,22.188,22.188,0,0,0,.427,8.09,54.4,54.4,0,0,0,2.88,7.773C441.15,352.15,461.437,369.791,461.6,369.928Z" transform="translate(-432.385 -275.81)" fill="#3c8cdd"/>
        <path id="Path_72" data-name="Path 72" d="M446.348,359.173h0a.606.606,0,0,0,.7-.5c3.611-23.8,19.8-47.686,29.37-53.681a.62.62,0,0,0,.193-.827.607.607,0,0,0-.841-.193c-9.758,6.105-26.255,30.39-29.921,54.508a.606.606,0,0,0,.5.689Z" transform="translate(-429.244 -274.84)" fill="#fff"/>
        <path id="Path_73" data-name="Path 73" d="M452.85,324.619h.179a81.469,81.469,0,0,1,17.655.565.62.62,0,0,0,.7-.51.593.593,0,0,0-.51-.689,83.081,83.081,0,0,0-17.986-.579.606.606,0,0,0,0,1.2Z" transform="translate(-426.774 -267.547)" fill="#fff"/>
      </g>
    </g>
    <g id="freepik--Clouds--inject-33" transform="translate(172.003 174.835)">
      <g id="freepik--clouds--inject-33-2" data-name="freepik--clouds--inject-33">
        <path id="freepik--Cloud--inject-33" d="M169.858,138.342l-6.891,3.983a6.891,6.891,0,0,0,0-.91v-2c0-3.556-2.495-4.989-5.513-3.211a10.847,10.847,0,0,0-3.321,3.184c-.5-4.465-4.011-6.133-8.269-3.666a18.385,18.385,0,0,0-8.269,14.43v2.922a7.993,7.993,0,0,0,.7,3.459l-5.72,3.308a6.891,6.891,0,0,0-3.087,5.347c0,1.971,1.378,2.756,3.087,1.792l37.336-21.555A6.891,6.891,0,0,0,173,140.079C172.917,138.163,171.539,137.364,169.858,138.342Z" transform="translate(-129.49 -134.581)" fill="#ebebeb"/>
        <path id="freepik--cloud--inject-33-2" data-name="freepik--cloud--inject-33" d="M187.693,150.952l-5.058,2.922a5.824,5.824,0,0,0,0-.675v-1.461c0-2.6-1.833-3.666-4.135-2.357a7.828,7.828,0,0,0-2.426,2.343c-.372-3.28-2.936-4.493-6.064-2.756a13.506,13.506,0,0,0-6.105,10.585v2.191a5.761,5.761,0,0,0,.51,2.536L160.28,166.7a4.962,4.962,0,0,0-2.26,3.914c0,1.447,1.006,2.026,2.26,1.309L187.693,156.2a4.962,4.962,0,0,0,2.26-3.914C189.953,150.814,188.947,150.235,187.693,150.952Z" transform="translate(-118.7 -129.439)" fill="#ebebeb"/>
      </g>
    </g>
    <g id="freepik--Device--inject-33" transform="translate(33.506 150.99)">
      <g id="freepik--device--inject-33-2" data-name="freepik--device--inject-33">
        <g id="freepik--device--inject-33-3" data-name="freepik--device--inject-33" transform="translate(0 92.508)">
          <g id="freepik--device--inject-33-4" data-name="freepik--device--inject-33">
            <path id="Path_74" data-name="Path 74" d="M617.606,369.969c2.936,2.274,2.619,5.513-.937,7.539L422.079,489.859a15.711,15.711,0,0,1-14.154,0L36.056,275.148c-3.611-2.081-3.9-5.347-.841-7.608A15.739,15.739,0,0,0,29,279.2v9.358a15.574,15.574,0,0,0,7.084,12.266L407.9,515.563a15.642,15.642,0,0,0,14.168,0l194.59-112.324a15.588,15.588,0,0,0,7.07-12.252v-9.372a15.822,15.822,0,0,0-6.119-11.646Z" transform="translate(-29 -152.958)" fill="#455a64"/>
            <path id="Path_75" data-name="Path 75" d="M615.538,400.792,243.656,186.081a15.753,15.753,0,0,0-14.154,0L34.926,298.433c-3.914,2.246-3.914,5.913,0,8.159L406.794,521.3a15.711,15.711,0,0,0,14.154,0l194.59-112.352C619.438,406.7,619.438,402.984,615.538,400.792Z" transform="translate(-27.869 -184.402)" fill="#37474f"/>
            <path id="Path_76" data-name="Path 76" d="M35.216,267.54A15.739,15.739,0,0,0,29,279.2v9.358a15.6,15.6,0,0,0,7.084,12.266L407.9,515.563a14.526,14.526,0,0,0,7.1,1.7V491.541a14.582,14.582,0,0,1-7.084-1.681L36.056,275.148C32.446,273.067,32.156,269.8,35.216,267.54Z" transform="translate(-29 -152.958)" fill="#263238"/>
            <path id="Path_77" data-name="Path 77" d="M105.526,241.993c1.985-1.144,1.985-3,0-4.135a7.883,7.883,0,0,0-7.194,0c-2,1.144-2,3,0,4.135A7.966,7.966,0,0,0,105.526,241.993Z" transform="translate(-3.345 -164.512)"/>
            <path id="Path_78" data-name="Path 78" d="M112.1,241.556l27.771-16.029c1.668-.951,1.75-2.467.193-3.363a6.464,6.464,0,0,0-5.816.11l-27.771,16.042c-1.654.951-1.737,2.453-.193,3.349A6.422,6.422,0,0,0,112.1,241.556Z" transform="translate(-0.189 -170.36)"/>
            <path id="Path_79" data-name="Path 79" d="M248.116,198.4c-3.335-1.93-6.891-.813-10.171,1.13L56.021,304.462c-3.349,1.93-3.363,5.058,0,7L386.088,502.07a13.451,13.451,0,0,0,12.142,0L580.154,397.12c3.363-1.929,3.349-5.072,0-7Z" transform="translate(-19.732 -179.488)" fill="#3c8cdd"/>
            <path id="Path_80" data-name="Path 80" d="M248.116,198.4c-3.335-1.93-6.891-.813-10.171,1.13L56.021,304.462c-3.349,1.93-3.363,5.058,0,7L386.088,502.07a13.451,13.451,0,0,0,12.142,0L580.154,397.12c3.363-1.929,3.349-5.072,0-7Z" transform="translate(-19.732 -179.488)" fill="#fff" opacity="0.96"/>
          </g>
        </g>
        <g id="Group_17" data-name="Group 17" transform="translate(41.346 115.356)" opacity="0.4">
          <path id="Path_81" data-name="Path 81" d="M313.352,429.486,381.9,389.931,370.4,386.609A139.5,139.5,0,0,0,262,399.827h0Z" transform="translate(17.777 -132.84)" fill="#3c8cdd"/>
          <path id="Path_82" data-name="Path 82" d="M359.354,409.639l102.36-59.1L393.2,311,352.78,407.75Z" transform="translate(52.111 -159.369)" fill="#3c8cdd"/>
          <path id="Path_83" data-name="Path 83" d="M403.758,308.491,363.79,408.673c-23.623-7.5-44.819-8.641-69.09-4.465l38.59-95.014,56.066-9.014Z" transform="translate(30.144 -163.461)" fill="#3c8cdd"/>
          <path id="Path_84" data-name="Path 84" d="M312.891,391.445l14-34.455-108.782-12.9L199.85,364.4l75.8,43.772a155.31,155.31,0,0,1,37.239-16.732Z" transform="translate(-5.729 -146.854)" fill="#3c8cdd"/>
          <path id="Path_85" data-name="Path 85" d="M335.552,282.41l34.042,19.612-44.943,7.263Z" transform="translate(41.472 -170.182)" fill="#3c8cdd"/>
          <ellipse id="Ellipse_13" data-name="Ellipse 13" cx="12.114" cy="6.988" rx="12.114" ry="6.988" transform="translate(147.744 114.97)" fill="#3c8cdd"/>
          <path id="Path_86" data-name="Path 86" d="M359.886,312.683,191.62,292.74c-1.778,4.052-4.81,4.962-11.88,6.505L226.682,353l111.911,13.148Z" transform="translate(-13.335 -166.275)" fill="#3c8cdd"/>
          <path id="Path_87" data-name="Path 87" d="M278.612,273.131l-12.4,29.976L189.8,294.038a17.434,17.434,0,0,0-6.56-4.231l10.488-26.737Z" transform="translate(-12.011 -177.497)" fill="#3c8cdd"/>
          <path id="Path_88" data-name="Path 88" d="M349.69,279.647l-13.134,32.4-83.8-9.937,13.162-32.4Z" transform="translate(14.282 -174.986)" fill="#3c8cdd"/>
          <path id="Path_89" data-name="Path 89" d="M356.376,292.319l-138.8-80.129L193.54,273.01Z" transform="translate(-8.116 -196.74)" fill="#3c8cdd"/>
          <path id="Path_90" data-name="Path 90" d="M185.755,297.4l51.256,58.615-18.261,20.26-99.08-57.2,61.1-23.981A23.214,23.214,0,0,0,185.755,297.4Z" transform="translate(-36.054 -165.383)" fill="#3c8cdd"/>
          <path id="Path_91" data-name="Path 91" d="M212.948,275.913l25.69-65.052-17.131-9.882-109.127,63Z" transform="translate(-38.811 -200.98)" fill="#3c8cdd"/>
          <path id="Path_92" data-name="Path 92" d="M117.96,252.7,59,286.893l74.217,42.849,65.465-25.8c-.138-3.142,1.378-6.161,6.174-8.972,3.942-2.274,8.862-3.129,14.306-3.253l10.213-26.062Z" transform="translate(-59 -181.419)" fill="#3c8cdd"/>
        </g>
        <g id="freepik--City--inject-33" transform="translate(51.724)">
          <path id="Path_93" data-name="Path 93" d="M197.69,259.341V238.93l31.52,3.735v20.4Z" transform="translate(-16.924 -71.271)" fill="#3c8cdd"/>
          <path id="Path_94" data-name="Path 94" d="M220.56,246.629l6.491-18.179v22.506l-6.491,16.07Z" transform="translate(-8.274 -75.234)" fill="#3c8cdd"/>
          <path id="Path_95" data-name="Path 95" d="M235.7,229.471l-30.844-3.721-7.167,18.165,31.52,3.735Z" transform="translate(-16.924 -76.256)" fill="#3c8cdd"/>
          <path id="Path_96" data-name="Path 96" d="M197.69,259.341V238.93l31.52,3.735v20.4Z" transform="translate(-16.924 -71.271)" fill="#fff" opacity="0.8"/>
          <path id="Path_97" data-name="Path 97" d="M220.56,246.629l6.491-18.179v22.506l-6.491,16.07Z" transform="translate(-8.274 -75.234)" fill="#fff" opacity="0.75"/>
          <path id="Path_98" data-name="Path 98" d="M235.7,229.471l-30.844-3.721-7.167,18.165,31.52,3.735Z" transform="translate(-16.924 -76.256)" fill="#fff" opacity="0.9"/>
          <path id="Path_99" data-name="Path 99" d="M212.68,287.867V278.73l31.533,3.721V291.6Z" transform="translate(-11.255 -56.218)" fill="#3c8cdd"/>
          <path id="Path_100" data-name="Path 100" d="M235.56,285.753,241.183,270v11.246L235.56,294.9Z" transform="translate(-2.601 -59.52)" fill="#3c8cdd"/>
          <path id="Path_101" data-name="Path 101" d="M249.837,271.021,218.978,267.3l-6.3,15.753,31.533,3.721Z" transform="translate(-11.255 -60.541)" fill="#3c8cdd"/>
          <path id="Path_102" data-name="Path 102" d="M212.68,287.867V278.73l31.533,3.721V291.6Z" transform="translate(-11.255 -56.218)" fill="#fff" opacity="0.8"/>
          <path id="Path_103" data-name="Path 103" d="M235.56,285.753,241.183,270v11.246L235.56,294.9Z" transform="translate(-2.601 -59.52)" fill="#fff" opacity="0.75"/>
          <path id="Path_104" data-name="Path 104" d="M249.837,271.021,218.978,267.3l-6.3,15.753,31.533,3.721Z" transform="translate(-11.255 -60.541)" fill="#fff" opacity="0.9"/>
          <path id="Path_105" data-name="Path 105" d="M256.73,378.268v-20.4l31.52,3.721V382Z" transform="translate(5.406 -26.286)" fill="#3c8cdd"/>
          <path id="Path_106" data-name="Path 106" d="M279.6,365.555l6.505-18.165V369.9l-6.505,16.07Z" transform="translate(14.055 -30.25)" fill="#3c8cdd"/>
          <path id="Path_107" data-name="Path 107" d="M294.755,348.411,263.91,344.69l-7.18,18.165,31.52,3.721Z" transform="translate(5.406 -31.271)" fill="#3c8cdd"/>
          <path id="Path_108" data-name="Path 108" d="M256.73,378.268v-20.4l31.52,3.721V382Z" transform="translate(5.406 -26.286)" fill="#fff" opacity="0.8"/>
          <path id="Path_109" data-name="Path 109" d="M279.6,365.555l6.505-18.165V369.9l-6.505,16.07Z" transform="translate(14.055 -30.25)" fill="#fff" opacity="0.75"/>
          <path id="Path_110" data-name="Path 110" d="M294.755,348.411,263.91,344.69l-7.18,18.165,31.52,3.721Z" transform="translate(5.406 -31.271)" fill="#fff" opacity="0.9"/>
          <path id="Path_111" data-name="Path 111" d="M256.34,262.461V254.95l15.96,1.888v7.511Z" transform="translate(5.258 -65.212)" fill="#3c8cdd"/>
          <path id="Path_112" data-name="Path 112" d="M267.92,258.846l3.28-9.206v8.586l-3.28,8.131Z" transform="translate(9.638 -67.22)" fill="#3c8cdd"/>
          <path id="Path_113" data-name="Path 113" d="M275.58,250.154l-15.615-1.874-3.625,9.193,15.96,1.888Z" transform="translate(5.258 -67.734)" fill="#3c8cdd"/>
          <path id="Path_114" data-name="Path 114" d="M256.34,262.461V254.95l15.96,1.888v7.511Z" transform="translate(5.258 -65.212)" fill="#fff" opacity="0.8"/>
          <path id="Path_115" data-name="Path 115" d="M267.92,258.846l3.28-9.206v8.586l-3.28,8.131Z" transform="translate(9.638 -67.22)" fill="#fff" opacity="0.75"/>
          <path id="Path_116" data-name="Path 116" d="M275.58,250.154l-15.615-1.874-3.625,9.193,15.96,1.888Z" transform="translate(5.258 -67.734)" fill="#fff" opacity="0.9"/>
          <path id="Path_117" data-name="Path 117" d="M171.96,237.683V226.74l23.209,2.743v10.943Z" transform="translate(-26.655 -75.881)" fill="#3c8cdd"/>
          <path id="Path_118" data-name="Path 118" d="M188.8,232.4l4.782-13.369v12.487L188.8,243.342Z" transform="translate(-20.286 -78.797)" fill="#3c8cdd"/>
          <path id="Path_119" data-name="Path 119" d="M199.951,219.783l-22.713-2.743-5.279,13.369,23.209,2.743Z" transform="translate(-26.655 -79.55)" fill="#3c8cdd"/>
          <path id="Path_120" data-name="Path 120" d="M171.96,237.683V226.74l23.209,2.743v10.943Z" transform="translate(-26.655 -75.881)" fill="#fff" opacity="0.8"/>
          <path id="Path_121" data-name="Path 121" d="M188.8,232.4l4.782-13.369v12.487L188.8,243.342Z" transform="translate(-20.286 -78.797)" fill="#fff" opacity="0.75"/>
          <path id="Path_122" data-name="Path 122" d="M199.951,219.783l-22.713-2.743-5.279,13.369,23.209,2.743Z" transform="translate(-26.655 -79.55)" fill="#fff" opacity="0.9"/>
          <path id="Path_123" data-name="Path 123" d="M258.35,293.974V284.23l20.7,2.439v9.758Z" transform="translate(6.018 -54.138)" fill="#3c8cdd"/>
          <path id="Path_124" data-name="Path 124" d="M273.37,289.272l4.259-11.922v11.136l-4.259,10.543Z" transform="translate(11.699 -56.74)" fill="#3c8cdd"/>
          <path id="Path_125" data-name="Path 125" d="M283.309,278.019l-20.246-2.439L258.35,287.5l20.7,2.439Z" transform="translate(6.018 -57.409)" fill="#3c8cdd"/>
          <path id="Path_126" data-name="Path 126" d="M258.35,293.974V284.23l20.7,2.439v9.758Z" transform="translate(6.018 -54.138)" fill="#fff" opacity="0.8"/>
          <path id="Path_127" data-name="Path 127" d="M273.37,289.272l4.259-11.922v11.136l-4.259,10.543Z" transform="translate(11.699 -56.74)" fill="#fff" opacity="0.75"/>
          <path id="Path_128" data-name="Path 128" d="M283.309,278.019l-20.246-2.439L258.35,287.5l20.7,2.439Z" transform="translate(6.018 -57.409)" fill="#fff" opacity="0.9"/>
          <path id="Path_129" data-name="Path 129" d="M190.23,285.613V275.58l21.293,2.508v10.047Z" transform="translate(-19.745 -57.409)" fill="#3c8cdd"/>
          <path id="Path_130" data-name="Path 130" d="M205.68,280.766l4.383-12.266v11.453l-4.383,10.86Z" transform="translate(-13.902 -60.087)" fill="#3c8cdd"/>
          <path id="Path_131" data-name="Path 131" d="M215.906,269.188l-20.825-2.508-4.851,12.266,21.293,2.508Z" transform="translate(-19.745 -60.775)" fill="#3c8cdd"/>
          <path id="Path_132" data-name="Path 132" d="M190.23,285.613V275.58l21.293,2.508v10.047Z" transform="translate(-19.745 -57.409)" fill="#fff" opacity="0.8"/>
          <path id="Path_133" data-name="Path 133" d="M205.68,280.766l4.383-12.266v11.453l-4.383,10.86Z" transform="translate(-13.902 -60.087)" fill="#fff" opacity="0.75"/>
          <path id="Path_134" data-name="Path 134" d="M215.906,269.188l-20.825-2.508-4.851,12.266,21.293,2.508Z" transform="translate(-19.745 -60.775)" fill="#fff" opacity="0.9"/>
          <path id="Path_135" data-name="Path 135" d="M277.78,296.218V286.46l20.7,2.453v9.758Z" transform="translate(13.367 -53.294)" fill="#3c8cdd"/>
          <path id="Path_136" data-name="Path 136" d="M292.8,291.512l4.259-11.922v11.122L292.8,301.269Z" transform="translate(19.048 -55.893)" fill="#3c8cdd"/>
          <path id="Path_137" data-name="Path 137" d="M302.739,280.263l-20.246-2.453-4.714,11.922,20.7,2.453Z" transform="translate(13.367 -56.566)" fill="#3c8cdd"/>
          <path id="Path_138" data-name="Path 138" d="M277.78,296.218V286.46l20.7,2.453v9.758Z" transform="translate(13.367 -53.294)" fill="#fff" opacity="0.8"/>
          <path id="Path_139" data-name="Path 139" d="M292.8,291.512l4.259-11.922v11.122L292.8,301.269Z" transform="translate(19.048 -55.893)" fill="#fff" opacity="0.75"/>
          <path id="Path_140" data-name="Path 140" d="M302.739,280.263l-20.246-2.453-4.714,11.922,20.7,2.453Z" transform="translate(13.367 -56.566)" fill="#fff" opacity="0.9"/>
          <path id="Path_141" data-name="Path 141" d="M297.21,298.458V288.7l20.687,2.453V300.9Z" transform="translate(20.716 -52.447)" fill="#3c8cdd"/>
          <path id="Path_142" data-name="Path 142" d="M312.22,293.755l4.272-11.935v11.136L312.22,303.5Z" transform="translate(26.393 -55.049)" fill="#3c8cdd"/>
          <path id="Path_143" data-name="Path 143" d="M322.169,282.489l-20.246-2.439-4.714,11.922,20.687,2.453Z" transform="translate(20.716 -55.719)" fill="#3c8cdd"/>
          <path id="Path_144" data-name="Path 144" d="M297.21,298.458V288.7l20.687,2.453V300.9Z" transform="translate(20.716 -52.447)" fill="#fff" opacity="0.8"/>
          <path id="Path_145" data-name="Path 145" d="M312.22,293.755l4.272-11.935v11.136L312.22,303.5Z" transform="translate(26.393 -55.049)" fill="#fff" opacity="0.75"/>
          <path id="Path_146" data-name="Path 146" d="M322.169,282.489l-20.246-2.439-4.714,11.922,20.687,2.453Z" transform="translate(20.716 -55.719)" fill="#fff" opacity="0.9"/>
          <path id="Path_147" data-name="Path 147" d="M117.51,274.848V265.09l20.7,2.453V277.3Z" transform="translate(-47.249 -61.377)" fill="#3c8cdd"/>
          <path id="Path_148" data-name="Path 148" d="M132.53,270.142l4.259-11.922v11.122L132.53,279.9Z" transform="translate(-41.568 -63.975)" fill="#3c8cdd"/>
          <path id="Path_149" data-name="Path 149" d="M142.469,258.893l-20.246-2.453-4.713,11.922,20.7,2.453Z" transform="translate(-47.249 -64.648)" fill="#3c8cdd"/>
          <path id="Path_150" data-name="Path 150" d="M117.51,274.848V265.09l20.7,2.453V277.3Z" transform="translate(-47.249 -61.377)" fill="#fff" opacity="0.8"/>
          <path id="Path_151" data-name="Path 151" d="M132.53,270.142l4.259-11.922v11.122L132.53,279.9Z" transform="translate(-41.568 -63.975)" fill="#fff" opacity="0.75"/>
          <path id="Path_152" data-name="Path 152" d="M142.469,258.893l-20.246-2.453-4.713,11.922,20.7,2.453Z" transform="translate(-47.249 -64.648)" fill="#fff" opacity="0.9"/>
          <path id="Path_153" data-name="Path 153" d="M136.94,277.088V267.33l20.7,2.453v9.744Z" transform="translate(-39.9 -60.53)" fill="#3c8cdd"/>
          <path id="Path_154" data-name="Path 154" d="M151.96,272.385l4.259-11.935v11.136l-4.259,10.543Z" transform="translate(-34.219 -63.132)" fill="#3c8cdd"/>
          <path id="Path_155" data-name="Path 155" d="M161.9,261.119l-20.246-2.439L136.94,270.6l20.7,2.453Z" transform="translate(-39.9 -63.801)" fill="#3c8cdd"/>
          <path id="Path_156" data-name="Path 156" d="M136.94,277.088V267.33l20.7,2.453v9.744Z" transform="translate(-39.9 -60.53)" fill="#fff" opacity="0.8"/>
          <path id="Path_157" data-name="Path 157" d="M151.96,272.385l4.259-11.935v11.136l-4.259,10.543Z" transform="translate(-34.219 -63.132)" fill="#fff" opacity="0.75"/>
          <path id="Path_158" data-name="Path 158" d="M161.9,261.119l-20.246-2.439L136.94,270.6l20.7,2.453Z" transform="translate(-39.9 -63.801)" fill="#fff" opacity="0.9"/>
          <path id="Path_159" data-name="Path 159" d="M156.37,279.314V269.57l20.687,2.453v9.744Z" transform="translate(-32.552 -59.682)" fill="#3c8cdd"/>
          <path id="Path_160" data-name="Path 160" d="M171.38,274.625l4.272-11.935v11.136l-4.272,10.543Z" transform="translate(-26.875 -62.284)" fill="#3c8cdd"/>
          <path id="Path_161" data-name="Path 161" d="M181.329,263.359l-20.26-2.439-4.7,11.922,20.687,2.453Z" transform="translate(-32.552 -62.954)" fill="#3c8cdd"/>
          <path id="Path_162" data-name="Path 162" d="M156.37,279.314V269.57l20.687,2.453v9.744Z" transform="translate(-32.552 -59.682)" fill="#fff" opacity="0.8"/>
          <path id="Path_163" data-name="Path 163" d="M171.38,274.625l4.272-11.935v11.136l-4.272,10.543Z" transform="translate(-26.875 -62.284)" fill="#fff" opacity="0.75"/>
          <path id="Path_164" data-name="Path 164" d="M181.329,263.359l-20.26-2.439-4.7,11.922,20.687,2.453Z" transform="translate(-32.552 -62.954)" fill="#fff" opacity="0.9"/>
          <path id="Path_165" data-name="Path 165" d="M350.25,251.052v-5.8l17.545,2.067v5.8Z" transform="translate(40.776 -68.88)" fill="#3c8cdd"/>
          <path id="Path_166" data-name="Path 166" d="M350.25,251.052v-5.8l17.545,2.067v5.8Z" transform="translate(40.776 -68.88)" fill="#fff" opacity="0.8"/>
          <path id="Path_167" data-name="Path 167" d="M362.98,248.815l2.563-7.525v7.056l-2.563,6.271Z" transform="translate(45.59 -70.378)" fill="#3c8cdd"/>
          <path id="Path_168" data-name="Path 168" d="M362.98,248.815l2.563-7.525v7.056l-2.563,6.271Z" transform="translate(45.59 -70.378)" fill="#fff" opacity="0.75"/>
          <path id="Path_169" data-name="Path 169" d="M370.358,241.854,353.213,239.8l-2.963,7.511,17.545,2.067Z" transform="translate(40.776 -70.942)" fill="#3c8cdd"/>
          <path id="Path_170" data-name="Path 170" d="M370.358,241.854,353.213,239.8l-2.963,7.511,17.545,2.067Z" transform="translate(40.776 -70.942)" fill="#fff" opacity="0.9"/>
          <path id="Path_171" data-name="Path 171" d="M259.99,341.208V331.45l20.7,2.453v9.758Z" transform="translate(6.639 -36.279)" fill="#3c8cdd"/>
          <path id="Path_172" data-name="Path 172" d="M275.01,336.505l4.259-11.935v11.136l-4.259,10.557Z" transform="translate(12.319 -38.881)" fill="#3c8cdd"/>
          <path id="Path_173" data-name="Path 173" d="M284.949,325.239,264.7,322.8l-4.714,11.922,20.7,2.453Z" transform="translate(6.639 -39.55)" fill="#3c8cdd"/>
          <path id="Path_174" data-name="Path 174" d="M259.99,341.208V331.45l20.7,2.453v9.758Z" transform="translate(6.639 -36.279)" fill="#fff" opacity="0.8"/>
          <path id="Path_175" data-name="Path 175" d="M275.01,336.505l4.259-11.935v11.136l-4.259,10.557Z" transform="translate(12.319 -38.881)" fill="#fff" opacity="0.75"/>
          <path id="Path_176" data-name="Path 176" d="M284.949,325.239,264.7,322.8l-4.714,11.922,20.7,2.453Z" transform="translate(6.639 -39.55)" fill="#fff" opacity="0.9"/>
          <path id="Path_177" data-name="Path 177" d="M278.73,343.434V333.69l20.7,2.439v9.758Z" transform="translate(13.726 -35.431)" fill="#3c8cdd"/>
          <path id="Path_178" data-name="Path 178" d="M293.75,338.732l4.272-11.922v11.122l-4.272,10.557Z" transform="translate(19.407 -38.034)" fill="#3c8cdd"/>
          <path id="Path_179" data-name="Path 179" d="M303.7,327.479l-20.26-2.439-4.713,11.922,20.7,2.439Z" transform="translate(13.726 -38.703)" fill="#3c8cdd"/>
          <path id="Path_180" data-name="Path 180" d="M278.73,343.434V333.69l20.7,2.439v9.758Z" transform="translate(13.726 -35.431)" fill="#fff" opacity="0.8"/>
          <path id="Path_181" data-name="Path 181" d="M293.75,338.732l4.272-11.922v11.122l-4.272,10.557Z" transform="translate(19.407 -38.034)" fill="#fff" opacity="0.75"/>
          <path id="Path_182" data-name="Path 182" d="M303.7,327.479l-20.26-2.439-4.713,11.922,20.7,2.439Z" transform="translate(13.726 -38.703)" fill="#fff" opacity="0.9"/>
          <path id="Path_183" data-name="Path 183" d="M212.55,364.914V355.17l20.7,2.439v9.758Z" transform="translate(-11.304 -27.308)" fill="#3c8cdd"/>
          <path id="Path_184" data-name="Path 184" d="M227.57,360.212l4.259-11.922v11.136l-4.259,10.543Z" transform="translate(-5.623 -29.91)" fill="#3c8cdd"/>
          <path id="Path_185" data-name="Path 185" d="M237.509,348.963l-20.246-2.453-4.713,11.935,20.7,2.439Z" transform="translate(-11.304 -30.583)" fill="#3c8cdd"/>
          <path id="Path_186" data-name="Path 186" d="M212.55,364.914V355.17l20.7,2.439v9.758Z" transform="translate(-11.304 -27.308)" fill="#fff" opacity="0.8"/>
          <path id="Path_187" data-name="Path 187" d="M227.57,360.212l4.259-11.922v11.136l-4.259,10.543Z" transform="translate(-5.623 -29.91)" fill="#fff" opacity="0.75"/>
          <path id="Path_188" data-name="Path 188" d="M237.509,348.963l-20.246-2.453-4.713,11.935,20.7,2.439Z" transform="translate(-11.304 -30.583)" fill="#fff" opacity="0.9"/>
          <path id="Path_189" data-name="Path 189" d="M231.29,367.158V357.4l20.7,2.453V369.6Z" transform="translate(-4.216 -26.464)" fill="#3c8cdd"/>
          <path id="Path_190" data-name="Path 190" d="M246.31,362.455l4.272-11.935v11.136L246.31,372.2Z" transform="translate(1.465 -29.066)" fill="#3c8cdd"/>
          <path id="Path_191" data-name="Path 191" d="M256.263,351.189,236,348.75l-4.714,11.922,20.7,2.453Z" transform="translate(-4.216 -29.736)" fill="#3c8cdd"/>
          <path id="Path_192" data-name="Path 192" d="M231.29,367.158V357.4l20.7,2.453V369.6Z" transform="translate(-4.216 -26.464)" fill="#fff" opacity="0.8"/>
          <path id="Path_193" data-name="Path 193" d="M246.31,362.455l4.272-11.935v11.136L246.31,372.2Z" transform="translate(1.465 -29.066)" fill="#fff" opacity="0.75"/>
          <path id="Path_194" data-name="Path 194" d="M256.263,351.189,236,348.75l-4.714,11.922,20.7,2.453Z" transform="translate(-4.216 -29.736)" fill="#fff" opacity="0.9"/>
          <path id="Path_195" data-name="Path 195" d="M345.25,331.328V321.57l20.687,2.453v9.744Z" transform="translate(38.885 -40.015)" fill="#3c8cdd"/>
          <path id="Path_196" data-name="Path 196" d="M360.26,326.625l4.272-11.935v11.136l-4.272,10.543Z" transform="translate(44.562 -42.617)" fill="#3c8cdd"/>
          <path id="Path_197" data-name="Path 197" d="M370.209,315.359l-20.26-2.439-4.7,11.922,20.687,2.453Z" transform="translate(38.885 -43.287)" fill="#3c8cdd"/>
          <path id="Path_198" data-name="Path 198" d="M345.25,331.328V321.57l20.687,2.453v9.744Z" transform="translate(38.885 -40.015)" fill="#fff" opacity="0.8"/>
          <path id="Path_199" data-name="Path 199" d="M360.26,326.625l4.272-11.935v11.136l-4.272,10.543Z" transform="translate(44.562 -42.617)" fill="#fff" opacity="0.75"/>
          <path id="Path_200" data-name="Path 200" d="M370.209,315.359l-20.26-2.439-4.7,11.922,20.687,2.453Z" transform="translate(38.885 -43.287)" fill="#fff" opacity="0.9"/>
          <path id="Path_201" data-name="Path 201" d="M339.36,345.908V336.15l20.687,2.453v9.758Z" transform="translate(36.657 -34.501)" fill="#3c8cdd"/>
          <path id="Path_202" data-name="Path 202" d="M354.37,341.205l4.272-11.935v11.136l-4.272,10.557Z" transform="translate(42.334 -37.103)" fill="#3c8cdd"/>
          <path id="Path_203" data-name="Path 203" d="M364.319,329.939,344.06,327.5l-4.7,11.922,20.687,2.453Z" transform="translate(36.657 -37.773)" fill="#3c8cdd"/>
          <path id="Path_204" data-name="Path 204" d="M339.36,345.908V336.15l20.687,2.453v9.758Z" transform="translate(36.657 -34.501)" fill="#fff" opacity="0.8"/>
          <path id="Path_205" data-name="Path 205" d="M354.37,341.205l4.272-11.935v11.136l-4.272,10.557Z" transform="translate(42.334 -37.103)" fill="#fff" opacity="0.75"/>
          <path id="Path_206" data-name="Path 206" d="M364.319,329.939,344.06,327.5l-4.7,11.922,20.687,2.453Z" transform="translate(36.657 -37.773)" fill="#fff" opacity="0.9"/>
          <path id="Path_207" data-name="Path 207" d="M333.46,360.488V350.73l20.7,2.453v9.758Z" transform="translate(34.426 -28.987)" fill="#3c8cdd"/>
          <path id="Path_208" data-name="Path 208" d="M348.48,355.785l4.272-11.935v11.136l-4.272,10.557Z" transform="translate(40.106 -31.589)" fill="#3c8cdd"/>
          <path id="Path_209" data-name="Path 209" d="M358.433,344.519l-20.26-2.44L333.46,354l20.7,2.453Z" transform="translate(34.426 -32.258)" fill="#3c8cdd"/>
          <path id="Path_210" data-name="Path 210" d="M333.46,360.488V350.73l20.7,2.453v9.758Z" transform="translate(34.426 -28.987)" fill="#fff" opacity="0.8"/>
          <path id="Path_211" data-name="Path 211" d="M348.48,355.785l4.272-11.935v11.136l-4.272,10.557Z" transform="translate(40.106 -31.589)" fill="#fff" opacity="0.75"/>
          <path id="Path_212" data-name="Path 212" d="M358.433,344.519l-20.26-2.44L333.46,354l20.7,2.453Z" transform="translate(34.426 -32.258)" fill="#fff" opacity="0.9"/>
          <path id="Path_213" data-name="Path 213" d="M327.57,375.064V365.32l20.7,2.439v9.758Z" transform="translate(32.198 -23.469)" fill="#3c8cdd"/>
          <path id="Path_214" data-name="Path 214" d="M342.59,370.362l4.272-11.922v11.122l-4.272,10.557Z" transform="translate(37.879 -26.071)" fill="#3c8cdd"/>
          <path id="Path_215" data-name="Path 215" d="M352.543,359.113l-20.26-2.453L327.57,368.6l20.7,2.439Z" transform="translate(32.198 -26.744)" fill="#3c8cdd"/>
          <path id="Path_216" data-name="Path 216" d="M327.57,375.064V365.32l20.7,2.439v9.758Z" transform="translate(32.198 -23.469)" fill="#fff" opacity="0.8"/>
          <path id="Path_217" data-name="Path 217" d="M342.59,370.362l4.272-11.922v11.122l-4.272,10.557Z" transform="translate(37.879 -26.071)" fill="#fff" opacity="0.75"/>
          <path id="Path_218" data-name="Path 218" d="M352.543,359.113l-20.26-2.453L327.57,368.6l20.7,2.439Z" transform="translate(32.198 -26.744)" fill="#fff" opacity="0.9"/>
          <path id="Path_219" data-name="Path 219" d="M319.75,328.354V318.61l20.7,2.439v9.758Z" transform="translate(29.24 -41.135)" fill="#3c8cdd"/>
          <path id="Path_220" data-name="Path 220" d="M334.77,323.652l4.272-11.922v11.122l-4.272,10.557Z" transform="translate(34.921 -43.737)" fill="#3c8cdd"/>
          <path id="Path_221" data-name="Path 221" d="M344.723,312.4l-20.26-2.453-4.714,11.935,20.7,2.439Z" transform="translate(29.24 -44.41)" fill="#3c8cdd"/>
          <path id="Path_222" data-name="Path 222" d="M319.75,328.354V318.61l20.7,2.439v9.758Z" transform="translate(29.24 -41.135)" fill="#fff" opacity="0.8"/>
          <path id="Path_223" data-name="Path 223" d="M334.77,323.652l4.272-11.922v11.122l-4.272,10.557Z" transform="translate(34.921 -43.737)" fill="#fff" opacity="0.75"/>
          <path id="Path_224" data-name="Path 224" d="M344.723,312.4l-20.26-2.453-4.714,11.935,20.7,2.439Z" transform="translate(29.24 -44.41)" fill="#fff" opacity="0.9"/>
          <path id="Path_225" data-name="Path 225" d="M313.86,342.934V333.19l20.7,2.439v9.758Z" transform="translate(27.013 -35.621)" fill="#3c8cdd"/>
          <path id="Path_226" data-name="Path 226" d="M328.88,338.232l4.272-11.922v11.136l-4.272,10.543Z" transform="translate(32.694 -38.223)" fill="#3c8cdd"/>
          <path id="Path_227" data-name="Path 227" d="M338.833,326.979l-20.26-2.439-4.714,11.922,20.7,2.439Z" transform="translate(27.013 -38.892)" fill="#3c8cdd"/>
          <path id="Path_228" data-name="Path 228" d="M313.86,342.934V333.19l20.7,2.439v9.758Z" transform="translate(27.013 -35.621)" fill="#fff" opacity="0.8"/>
          <path id="Path_229" data-name="Path 229" d="M328.88,338.232l4.272-11.922v11.136l-4.272,10.543Z" transform="translate(32.694 -38.223)" fill="#fff" opacity="0.75"/>
          <path id="Path_230" data-name="Path 230" d="M338.833,326.979l-20.26-2.439-4.714,11.922,20.7,2.439Z" transform="translate(27.013 -38.892)" fill="#fff" opacity="0.9"/>
          <path id="Path_231" data-name="Path 231" d="M307.97,357.528V347.77l20.7,2.453v9.744Z" transform="translate(24.785 -30.106)" fill="#3c8cdd"/>
          <path id="Path_232" data-name="Path 232" d="M322.99,352.825l4.272-11.935v11.136l-4.272,10.543Z" transform="translate(30.466 -32.708)" fill="#3c8cdd"/>
          <path id="Path_233" data-name="Path 233" d="M332.943,341.559l-20.26-2.439-4.713,11.922,20.7,2.453Z" transform="translate(24.785 -33.378)" fill="#3c8cdd"/>
          <path id="Path_234" data-name="Path 234" d="M307.97,357.528V347.77l20.7,2.453v9.744Z" transform="translate(24.785 -30.106)" fill="#fff" opacity="0.8"/>
          <path id="Path_235" data-name="Path 235" d="M322.99,352.825l4.272-11.935v11.136l-4.272,10.543Z" transform="translate(30.466 -32.708)" fill="#fff" opacity="0.75"/>
          <path id="Path_236" data-name="Path 236" d="M332.943,341.559l-20.26-2.439-4.713,11.922,20.7,2.453Z" transform="translate(24.785 -33.378)" fill="#fff" opacity="0.9"/>
          <path id="Path_237" data-name="Path 237" d="M302.08,372.108V362.35l20.7,2.453v9.744Z" transform="translate(22.557 -24.592)" fill="#3c8cdd"/>
          <path id="Path_238" data-name="Path 238" d="M317.1,367.405l4.272-11.935v11.136L317.1,377.149Z" transform="translate(28.238 -27.194)" fill="#3c8cdd"/>
          <path id="Path_239" data-name="Path 239" d="M327.053,356.139l-20.26-2.439-4.714,11.922,20.7,2.453Z" transform="translate(22.557 -27.863)" fill="#3c8cdd"/>
          <path id="Path_240" data-name="Path 240" d="M302.08,372.108V362.35l20.7,2.453v9.744Z" transform="translate(22.557 -24.592)" fill="#fff" opacity="0.8"/>
          <path id="Path_241" data-name="Path 241" d="M317.1,367.405l4.272-11.935v11.136L317.1,377.149Z" transform="translate(28.238 -27.194)" fill="#fff" opacity="0.75"/>
          <path id="Path_242" data-name="Path 242" d="M327.053,356.139l-20.26-2.439-4.714,11.922,20.7,2.453Z" transform="translate(22.557 -27.863)" fill="#fff" opacity="0.9"/>
          <path id="Path_243" data-name="Path 243" d="M370.13,354.453V346.79l16.29,1.929v7.663Z" transform="translate(48.295 -30.477)" fill="#3c8cdd"/>
          <path id="Path_244" data-name="Path 244" d="M381.95,350.766l3.349-9.386v8.752l-3.349,8.3Z" transform="translate(52.765 -32.523)" fill="#3c8cdd"/>
          <path id="Path_245" data-name="Path 245" d="M389.77,341.909l-15.932-1.93-3.707,9.386,16.29,1.93Z" transform="translate(48.295 -33.052)" fill="#3c8cdd"/>
          <path id="Path_246" data-name="Path 246" d="M370.13,354.453V346.79l16.29,1.929v7.663Z" transform="translate(48.295 -30.477)" fill="#fff" opacity="0.8"/>
          <path id="Path_247" data-name="Path 247" d="M381.95,350.766l3.349-9.386v8.752l-3.349,8.3Z" transform="translate(52.765 -32.523)" fill="#fff" opacity="0.75"/>
          <path id="Path_248" data-name="Path 248" d="M389.77,341.909l-15.932-1.93-3.707,9.386,16.29,1.93Z" transform="translate(48.295 -33.052)" fill="#fff" opacity="0.9"/>
          <path id="Path_249" data-name="Path 249" d="M364.23,370.857V363.18l16.277,1.929v7.663Z" transform="translate(46.063 -24.278)" fill="#3c8cdd"/>
          <path id="Path_250" data-name="Path 250" d="M376.04,367.156l3.363-9.386v8.752l-3.363,8.3Z" transform="translate(50.53 -26.324)" fill="#3c8cdd"/>
          <path id="Path_251" data-name="Path 251" d="M383.87,358.3l-15.932-1.93-3.707,9.386,16.277,1.929Z" transform="translate(46.063 -26.854)" fill="#3c8cdd"/>
          <path id="Path_252" data-name="Path 252" d="M364.23,370.857V363.18l16.277,1.929v7.663Z" transform="translate(46.063 -24.278)" fill="#fff" opacity="0.8"/>
          <path id="Path_253" data-name="Path 253" d="M376.04,367.156l3.363-9.386v8.752l-3.363,8.3Z" transform="translate(50.53 -26.324)" fill="#fff" opacity="0.75"/>
          <path id="Path_254" data-name="Path 254" d="M383.87,358.3l-15.932-1.93-3.707,9.386,16.277,1.929Z" transform="translate(46.063 -26.854)" fill="#fff" opacity="0.9"/>
          <path id="Path_255" data-name="Path 255" d="M237.38,345.63V309.08l25.662,3.032v36.536Z" transform="translate(-1.913 -44.739)" fill="#3c8cdd"/>
          <path id="Path_256" data-name="Path 256" d="M237.38,345.63V309.08l25.662,3.032v36.536Z" transform="translate(-1.913 -44.739)" fill="#fff" opacity="0.8"/>
          <path id="Path_257" data-name="Path 257" d="M256,313.727l3.322-8.917v38.369L256,350.263Z" transform="translate(5.13 -46.354)" fill="#3c8cdd"/>
          <path id="Path_258" data-name="Path 258" d="M256,313.727l3.322-8.917v38.369L256,350.263Z" transform="translate(5.13 -46.354)" fill="#fff" opacity="0.75"/>
          <path id="Path_259" data-name="Path 259" d="M266.364,305.634l-25.07-3-3.914,8.889,25.662,3.032Z" transform="translate(-1.913 -47.179)" fill="#3c8cdd"/>
          <path id="Path_260" data-name="Path 260" d="M266.364,305.634l-25.07-3-3.914,8.889,25.662,3.032Z" transform="translate(-1.913 -47.179)" fill="#fff" opacity="0.9"/>
          <path id="Path_261" data-name="Path 261" d="M143.26,258.331V215.11l14.788,1.654v43.207Z" transform="translate(-37.51 -80.28)" fill="#3c8cdd"/>
          <path id="Path_262" data-name="Path 262" d="M143.26,258.331V215.11l14.788,1.654v43.207Z" transform="translate(-37.51 -80.28)" fill="#fff" opacity="0.8"/>
          <path id="Path_263" data-name="Path 263" d="M153.99,218.757l3.321-8.917v45.04l-3.321,7.084Z" transform="translate(-33.452 -82.273)" fill="#3c8cdd"/>
          <path id="Path_264" data-name="Path 264" d="M153.99,218.757l3.321-8.917v45.04l-3.321,7.084Z" transform="translate(-33.452 -82.273)" fill="#fff" opacity="0.75"/>
          <path id="Path_265" data-name="Path 265" d="M161.37,210.286l-14.2-1.626-3.914,8.889,14.788,1.654Z" transform="translate(-37.51 -82.719)" fill="#3c8cdd"/>
          <path id="Path_266" data-name="Path 266" d="M161.37,210.286l-14.2-1.626-3.914,8.889,14.788,1.654Z" transform="translate(-37.51 -82.719)" fill="#fff" opacity="0.9"/>
          <path id="Path_267" data-name="Path 267" d="M155.19,255.827V217.72l7.828.841v38.121Z" transform="translate(-32.998 -79.293)" fill="#3c8cdd"/>
          <path id="Path_268" data-name="Path 268" d="M155.19,255.827V217.72l7.828.841v38.121Z" transform="translate(-32.998 -79.293)" fill="#fff" opacity="0.8"/>
          <path id="Path_269" data-name="Path 269" d="M160.87,219.4l1.227-3.9v39.665l-1.227,2.357Z" transform="translate(-30.85 -80.132)" fill="#3c8cdd"/>
          <path id="Path_270" data-name="Path 270" d="M160.87,219.4l1.227-3.9v39.665l-1.227,2.357Z" transform="translate(-30.85 -80.132)" fill="#fff" opacity="0.75"/>
          <path id="Path_271" data-name="Path 271" d="M164.245,215.731l-7.332-.841-1.723,3.9,7.828.841Z" transform="translate(-32.998 -80.363)" fill="#3c8cdd"/>
          <path id="Path_272" data-name="Path 272" d="M164.245,215.731l-7.332-.841-1.723,3.9,7.828.841Z" transform="translate(-32.998 -80.363)" fill="#fff" opacity="0.9"/>
          <path id="Path_273" data-name="Path 273" d="M215.12,342.98V306.43l25.662,3.018V346Z" transform="translate(-10.332 -45.741)" fill="#3c8cdd"/>
          <path id="Path_274" data-name="Path 274" d="M215.12,342.98V306.43l25.662,3.018V346Z" transform="translate(-10.332 -45.741)" fill="#fff" opacity="0.8"/>
          <path id="Path_275" data-name="Path 275" d="M233.74,311.063l3.335-8.9v38.369l-3.335,7.084Z" transform="translate(-3.289 -47.356)" fill="#3c8cdd"/>
          <path id="Path_276" data-name="Path 276" d="M233.74,311.063l3.335-8.9v38.369l-3.335,7.084Z" transform="translate(-3.289 -47.356)" fill="#fff" opacity="0.75"/>
          <path id="Path_277" data-name="Path 277" d="M244.118,302.984l-25.07-3-3.928,8.889,25.662,3.018Z" transform="translate(-10.332 -48.181)" fill="#3c8cdd"/>
          <path id="Path_278" data-name="Path 278" d="M244.118,302.984l-25.07-3-3.928,8.889,25.662,3.018Z" transform="translate(-10.332 -48.181)" fill="#fff" opacity="0.9"/>
          <path id="Path_279" data-name="Path 279" d="M166.21,252.463V241.52l23.2,2.743v10.943Z" transform="translate(-28.83 -70.291)" fill="#3c8cdd"/>
          <path id="Path_280" data-name="Path 280" d="M183.04,247.179l4.8-13.369V246.3l-4.8,11.825Z" transform="translate(-22.465 -73.207)" fill="#3c8cdd"/>
          <path id="Path_281" data-name="Path 281" d="M194.2,234.563l-22.713-2.743-5.279,13.369,23.2,2.743Z" transform="translate(-28.83 -73.96)" fill="#3c8cdd"/>
          <path id="Path_282" data-name="Path 282" d="M166.21,252.463V241.52l23.2,2.743v10.943Z" transform="translate(-28.83 -70.291)" fill="#fff" opacity="0.8"/>
          <path id="Path_283" data-name="Path 283" d="M183.04,247.179l4.8-13.369V246.3l-4.8,11.825Z" transform="translate(-22.465 -73.207)" fill="#fff" opacity="0.75"/>
          <path id="Path_284" data-name="Path 284" d="M194.2,234.563l-22.713-2.743-5.279,13.369,23.2,2.743Z" transform="translate(-28.83 -73.96)" fill="#fff" opacity="0.9"/>
          <path id="Path_285" data-name="Path 285" d="M159.735,308.581l-16.621,9.592L129.8,310.538l17.476-10.088Z" transform="translate(-42.601 -48.003)" fill="#3c8cdd"/>
          <path id="Path_286" data-name="Path 286" d="M159.735,308.581l-16.621,9.592L129.8,310.538l17.476-10.088Z" transform="translate(-42.601 -48.003)" fill="#fff" opacity="0.9"/>
          <path id="Path_287" data-name="Path 287" d="M129.8,315.681V307.77l13.314,7.635v7.952Z" transform="translate(-42.601 -45.235)" fill="#3c8cdd"/>
          <path id="Path_288" data-name="Path 288" d="M129.8,315.681V307.77l13.314,7.635v7.952Z" transform="translate(-42.601 -45.235)" fill="#fff" opacity="0.8"/>
          <path id="Path_289" data-name="Path 289" d="M156.081,306.35V314.3l-16.621,9.592v-7.952Z" transform="translate(-38.947 -45.772)" fill="#3c8cdd"/>
          <path id="Path_290" data-name="Path 290" d="M156.081,306.35V314.3l-16.621,9.592v-7.952Z" transform="translate(-38.947 -45.772)" fill="#fff" opacity="0.75"/>
          <path id="Path_291" data-name="Path 291" d="M173.211,316.528,156.59,326.12l-13.3-7.635,17.476-10.075Z" transform="translate(-37.499 -44.993)" fill="#3c8cdd"/>
          <path id="Path_292" data-name="Path 292" d="M173.211,316.528,156.59,326.12l-13.3-7.635,17.476-10.075Z" transform="translate(-37.499 -44.993)" fill="#fff" opacity="0.9"/>
          <path id="Path_293" data-name="Path 293" d="M143.29,323.631V315.72l13.3,7.635v7.952Z" transform="translate(-37.499 -42.228)" fill="#3c8cdd"/>
          <path id="Path_294" data-name="Path 294" d="M143.29,323.631V315.72l13.3,7.635v7.952Z" transform="translate(-37.499 -42.228)" fill="#fff" opacity="0.8"/>
          <path id="Path_295" data-name="Path 295" d="M169.561,314.3v7.952l-16.621,9.592v-7.952Z" transform="translate(-33.849 -42.765)" fill="#3c8cdd"/>
          <path id="Path_296" data-name="Path 296" d="M169.561,314.3v7.952l-16.621,9.592v-7.952Z" transform="translate(-33.849 -42.765)" fill="#fff" opacity="0.75"/>
          <path id="Path_297" data-name="Path 297" d="M186.975,324.411l-16.621,9.579-13.314-7.622,17.476-10.089Z" transform="translate(-32.298 -42.016)" fill="#3c8cdd"/>
          <path id="Path_298" data-name="Path 298" d="M186.975,324.411l-16.621,9.579-13.314-7.622,17.476-10.089Z" transform="translate(-32.298 -42.016)" fill="#fff" opacity="0.9"/>
          <path id="Path_299" data-name="Path 299" d="M157.04,331.5v-7.9l13.314,7.622v7.966Z" transform="translate(-32.298 -39.248)" fill="#3c8cdd"/>
          <path id="Path_300" data-name="Path 300" d="M157.04,331.5v-7.9l13.314,7.622v7.966Z" transform="translate(-32.298 -39.248)" fill="#fff" opacity="0.8"/>
          <path id="Path_301" data-name="Path 301" d="M183.321,322.18v7.952L166.7,339.725v-7.966Z" transform="translate(-28.645 -39.785)" fill="#3c8cdd"/>
          <path id="Path_302" data-name="Path 302" d="M183.321,322.18v7.952L166.7,339.725v-7.966Z" transform="translate(-28.645 -39.785)" fill="#fff" opacity="0.75"/>
          <path id="Path_303" data-name="Path 303" d="M206.495,327.958l-16.621,9.592-13.314-7.635,17.476-10.075Z" transform="translate(-24.916 -40.67)" fill="#3c8cdd"/>
          <path id="Path_304" data-name="Path 304" d="M206.495,327.958l-16.621,9.592-13.314-7.635,17.476-10.075Z" transform="translate(-24.916 -40.67)" fill="#fff" opacity="0.9"/>
          <path id="Path_305" data-name="Path 305" d="M176.56,346.183V327.15l13.314,7.635v19.088Z" transform="translate(-24.916 -37.905)" fill="#3c8cdd"/>
          <path id="Path_306" data-name="Path 306" d="M176.56,346.183V327.15l13.314,7.635v19.088Z" transform="translate(-24.916 -37.905)" fill="#fff" opacity="0.8"/>
          <path id="Path_307" data-name="Path 307" d="M202.841,325.73V344.8l-16.621,9.606V335.322Z" transform="translate(-21.262 -38.442)" fill="#3c8cdd"/>
          <path id="Path_308" data-name="Path 308" d="M202.841,325.73V344.8l-16.621,9.606V335.322Z" transform="translate(-21.262 -38.442)" fill="#fff" opacity="0.75"/>
          <path id="Path_309" data-name="Path 309" d="M134.767,295.488l-18.013,6.739-13.314-7.621,18.881-7.236Z" transform="translate(-52.57 -52.95)" fill="#3c8cdd"/>
          <path id="Path_310" data-name="Path 310" d="M134.767,295.488l-18.013,6.739-13.314-7.621,18.881-7.236Z" transform="translate(-52.57 -52.95)" fill="#fff" opacity="0.9"/>
          <path id="Path_311" data-name="Path 311" d="M103.44,300.517v-7.9l13.314,7.621v7.966Z" transform="translate(-52.57 -50.965)" fill="#3c8cdd"/>
          <path id="Path_312" data-name="Path 312" d="M103.44,300.517v-7.9l13.314,7.621v7.966Z" transform="translate(-52.57 -50.965)" fill="#fff" opacity="0.8"/>
          <path id="Path_313" data-name="Path 313" d="M131.113,293.26v7.952L113.1,307.965V300Z" transform="translate(-48.917 -50.723)" fill="#3c8cdd"/>
          <path id="Path_314" data-name="Path 314" d="M131.113,293.26v7.952L113.1,307.965V300Z" transform="translate(-48.917 -50.723)" fill="#fff" opacity="0.75"/>
          <path id="Path_315" data-name="Path 315" d="M155.731,287.488,137.7,294.241l-13.314-7.635,18.881-7.236Z" transform="translate(-44.647 -55.976)" fill="#3c8cdd"/>
          <path id="Path_316" data-name="Path 316" d="M155.731,287.488,137.7,294.241l-13.314-7.635,18.881-7.236Z" transform="translate(-44.647 -55.976)" fill="#fff" opacity="0.9"/>
          <path id="Path_317" data-name="Path 317" d="M124.39,292.531V284.62l13.314,7.635v7.952Z" transform="translate(-44.647 -53.99)" fill="#3c8cdd"/>
          <path id="Path_318" data-name="Path 318" d="M124.39,292.531V284.62l13.314,7.635v7.952Z" transform="translate(-44.647 -53.99)" fill="#fff" opacity="0.8"/>
          <path id="Path_319" data-name="Path 319" d="M152.077,285.26v7.966l-18.027,6.739v-7.952Z" transform="translate(-40.993 -53.748)" fill="#3c8cdd"/>
          <path id="Path_320" data-name="Path 320" d="M152.077,285.26v7.966l-18.027,6.739v-7.952Z" transform="translate(-40.993 -53.748)" fill="#fff" opacity="0.75"/>
          <path id="Path_321" data-name="Path 321" d="M226.48,259.722V248.2l33.683,3.969v11.522Z" transform="translate(-6.035 -67.765)" fill="#3c8cdd"/>
          <path id="Path_322" data-name="Path 322" d="M226.48,259.722V248.2l33.683,3.969v11.522Z" transform="translate(-6.035 -67.765)" fill="#fff" opacity="0.75"/>
          <path id="Path_323" data-name="Path 323" d="M250.92,256.545l7.112-19.915v13.837l-7.112,17.6Z" transform="translate(3.208 -72.141)" fill="#3c8cdd"/>
          <path id="Path_324" data-name="Path 324" d="M250.92,256.545l7.112-19.915v13.837l-7.112,17.6Z" transform="translate(3.208 -72.141)" fill="#fff" opacity="0.65"/>
          <path id="Path_325" data-name="Path 325" d="M267.275,237.719l-32.939-3.969-7.856,19.915,33.683,3.969Z" transform="translate(-6.035 -73.23)" fill="#3c8cdd"/>
          <path id="Path_326" data-name="Path 326" d="M267.275,237.719l-32.939-3.969-7.856,19.915,33.683,3.969Z" transform="translate(-6.035 -73.23)" fill="#fff" opacity="0.9"/>
          <path id="Path_327" data-name="Path 327" d="M229.62,261.543v-56.2l26.379,3.1v56.2Z" transform="translate(-4.848 -83.975)" fill="#3c8cdd"/>
          <path id="Path_328" data-name="Path 328" d="M229.62,261.543v-56.2l26.379,3.1v56.2Z" transform="translate(-4.848 -83.975)" fill="#fff" opacity="0.75"/>
          <path id="Path_329" data-name="Path 329" d="M248.76,212.015l5.761-16.125v58.064l-5.761,14.264Z" transform="translate(2.391 -87.549)" fill="#3c8cdd"/>
          <path id="Path_330" data-name="Path 330" d="M248.76,212.015l5.761-16.125v58.064l-5.761,14.264Z" transform="translate(2.391 -87.549)" fill="#fff" opacity="0.65"/>
          <path id="Path_331" data-name="Path 331" d="M261.76,196.741l-25.773-3.1-6.367,16.125,26.379,3.1Z" transform="translate(-4.848 -88.4)" fill="#3c8cdd"/>
          <path id="Path_332" data-name="Path 332" d="M261.76,196.741l-25.773-3.1-6.367,16.125,26.379,3.1Z" transform="translate(-4.848 -88.4)" fill="#fff" opacity="0.9"/>
          <path id="Path_333" data-name="Path 333" d="M235.59,211.118V180.48l14.389,1.7v30.638Z" transform="translate(-2.59 -93.377)" fill="#3c8cdd"/>
          <path id="Path_334" data-name="Path 334" d="M235.59,211.118V180.48l14.389,1.7v30.638Z" transform="translate(-2.59 -93.377)" fill="#fff" opacity="0.75"/>
          <path id="Path_335" data-name="Path 335" d="M246.03,184.123l3.142-8.793v31.658l-3.142,7.773Z" transform="translate(1.359 -95.325)" fill="#3c8cdd"/>
          <path id="Path_336" data-name="Path 336" d="M246.03,184.123l3.142-8.793v31.658l-3.142,7.773Z" transform="translate(1.359 -95.325)" fill="#fff" opacity="0.65"/>
          <path id="Path_337" data-name="Path 337" d="M253.121,175.8l-14.072-1.7-3.459,8.793,14.389,1.7Z" transform="translate(-2.59 -95.79)" fill="#3c8cdd"/>
          <path id="Path_338" data-name="Path 338" d="M253.121,175.8l-14.072-1.7-3.459,8.793,14.389,1.7Z" transform="translate(-2.59 -95.79)" fill="#fff" opacity="0.9"/>
          <path id="Path_339" data-name="Path 339" d="M346.28,339.524V250.96l26.393,3.1v88.564Z" transform="translate(39.274 -66.721)" fill="#3c8cdd"/>
          <path id="Path_340" data-name="Path 340" d="M346.28,339.524V250.96l26.393,3.1v88.564Z" transform="translate(39.274 -66.721)" fill="#fff" opacity="0.75"/>
          <path id="Path_341" data-name="Path 341" d="M365.43,256.308l3.859-11.288v90.424l-3.859,9.427Z" transform="translate(46.517 -68.967)" fill="#3c8cdd"/>
          <path id="Path_342" data-name="Path 342" d="M365.43,256.308l3.859-11.288v90.424l-3.859,9.427Z" transform="translate(46.517 -68.967)" fill="#fff" opacity="0.65"/>
          <path id="Path_343" data-name="Path 343" d="M376.532,245.871l-25.786-3.1-4.465,11.288,26.393,3.1Z" transform="translate(39.274 -69.818)" fill="#3c8cdd"/>
          <path id="Path_344" data-name="Path 344" d="M376.532,245.871l-25.786-3.1-4.465,11.288,26.393,3.1Z" transform="translate(39.274 -69.818)" fill="#fff" opacity="0.9"/>
          <path id="Path_345" data-name="Path 345" d="M377.26,358.224v-82l23,2.55v82.017Z" transform="translate(50.991 -57.167)" fill="#3c8cdd"/>
          <path id="Path_346" data-name="Path 346" d="M377.26,358.224v-82l23,2.55v82.017Z" transform="translate(50.991 -57.167)" fill="#fff" opacity="0.75"/>
          <path id="Path_347" data-name="Path 347" d="M393.95,281.871l5.182-13.851v84.843l-5.182,11.026Z" transform="translate(57.304 -60.269)" fill="#3c8cdd"/>
          <path id="Path_348" data-name="Path 348" d="M393.95,281.871l5.182-13.851v84.843l-5.182,11.026Z" transform="translate(57.304 -60.269)" fill="#fff" opacity="0.65"/>
          <path id="Path_349" data-name="Path 349" d="M405.444,268.72l-22.093-2.55-6.092,13.851,23,2.55Z" transform="translate(50.991 -60.968)" fill="#3c8cdd"/>
          <path id="Path_350" data-name="Path 350" d="M405.444,268.72l-22.093-2.55-6.092,13.851,23,2.55Z" transform="translate(50.991 -60.968)" fill="#fff" opacity="0.9"/>
          <path id="Path_351" data-name="Path 351" d="M395.83,354.345V280.28l12.183,1.309v74.065Z" transform="translate(58.015 -55.632)" fill="#3c8cdd"/>
          <path id="Path_352" data-name="Path 352" d="M395.83,354.345V280.28l12.183,1.309v74.065Z" transform="translate(58.015 -55.632)" fill="#fff" opacity="0.75"/>
          <path id="Path_353" data-name="Path 353" d="M404.67,282.9l1.888-6.078v76.5l-1.888,3.638Z" transform="translate(61.358 -56.94)" fill="#3c8cdd"/>
          <path id="Path_354" data-name="Path 354" d="M404.67,282.9l1.888-6.078v76.5l-1.888,3.638Z" transform="translate(61.358 -56.94)" fill="#fff" opacity="0.65"/>
          <path id="Path_355" data-name="Path 355" d="M409.9,277.176l-11.4-1.3-2.674,6.064,12.183,1.309Z" transform="translate(58.015 -57.296)" fill="#3c8cdd"/>
          <path id="Path_356" data-name="Path 356" d="M409.9,277.176l-11.4-1.3-2.674,6.064,12.183,1.309Z" transform="translate(58.015 -57.296)" fill="#fff" opacity="0.9"/>
          <path id="Path_357" data-name="Path 357" d="M66.53,270.17l33.6,19.391V300.1l-33.6-19.391Z" transform="translate(-66.53 -59.455)" fill="#3c8cdd"/>
          <path id="Path_358" data-name="Path 358" d="M66.53,270.17l33.6,19.391V300.1l-33.6-19.391Z" transform="translate(-66.53 -59.455)" opacity="0.35"/>
          <path id="Path_359" data-name="Path 359" d="M124.5,280.713V270.17L90.91,289.561V300.1" transform="translate(-57.309 -59.455)" fill="#3c8cdd"/>
          <path id="Path_360" data-name="Path 360" d="M124.5,270.17,90.91,289.561V300.1L124.5,280.713Z" transform="translate(-57.309 -59.455)" opacity="0.15"/>
          <path id="Path_361" data-name="Path 361" d="M133.718,275.491,100.131,256.1l-33.6,19.391,33.6,19.391Z" transform="translate(-66.53 -64.777)" fill="#3c8cdd"/>
          <path id="Path_362" data-name="Path 362" d="M133.718,275.491,100.131,256.1l-33.6,19.391,33.6,19.391Z" transform="translate(-66.53 -64.777)" opacity="0.5"/>
          <path id="Path_363" data-name="Path 363" d="M66.53,269.875l33.6,19.391v-3.225L66.53,266.65Z" transform="translate(-66.53 -60.787)" fill="#3c8cdd"/>
          <path id="Path_364" data-name="Path 364" d="M66.53,269.875l33.6,19.391v-3.225L66.53,266.65Z" transform="translate(-66.53 -60.787)" opacity="0.35"/>
          <path id="Path_365" data-name="Path 365" d="M90.91,289.266,124.5,269.875V266.65L90.91,286.041Z" transform="translate(-57.309 -60.787)" fill="#3c8cdd"/>
          <path id="Path_366" data-name="Path 366" d="M90.91,289.266,124.5,269.875V266.65L90.91,286.041Z" transform="translate(-57.309 -60.787)" opacity="0.15"/>
          <path id="Path_367" data-name="Path 367" d="M133.718,271.971,100.131,252.58l-33.6,19.391,33.6,19.391Z" transform="translate(-66.53 -66.108)" fill="#3c8cdd"/>
          <path id="Path_368" data-name="Path 368" d="M133.718,271.971,100.131,252.58l-33.6,19.391,33.6,19.391Z" transform="translate(-66.53 -66.108)" opacity="0.5"/>
          <path id="Path_369" data-name="Path 369" d="M66.53,266.095l33.6,19.391v-3.225L66.53,262.87Z" transform="translate(-66.53 -62.216)" fill="#3c8cdd"/>
          <path id="Path_370" data-name="Path 370" d="M66.53,266.095l33.6,19.391v-3.225L66.53,262.87Z" transform="translate(-66.53 -62.216)" opacity="0.35"/>
          <path id="Path_371" data-name="Path 371" d="M90.91,285.486,124.5,266.095V262.87L90.91,282.261Z" transform="translate(-57.309 -62.216)" fill="#3c8cdd"/>
          <path id="Path_372" data-name="Path 372" d="M90.91,285.486,124.5,266.095V262.87L90.91,282.261Z" transform="translate(-57.309 -62.216)" opacity="0.15"/>
          <path id="Path_373" data-name="Path 373" d="M133.718,268.191,100.131,248.8l-33.6,19.391,33.6,19.391Z" transform="translate(-66.53 -67.538)" fill="#3c8cdd"/>
          <path id="Path_374" data-name="Path 374" d="M133.718,268.191,100.131,248.8l-33.6,19.391,33.6,19.391Z" transform="translate(-66.53 -67.538)" opacity="0.5"/>
          <path id="Path_375" data-name="Path 375" d="M98.591,301.077V219.653L70.6,203.5v81.411Z" transform="translate(-64.991 -84.671)" fill="#3c8cdd"/>
          <path id="Path_376" data-name="Path 376" d="M90.91,219.653,118.9,203.5v81.411L90.91,301.077Z" transform="translate(-57.309 -84.671)" fill="#3c8cdd"/>
          <path id="Path_377" data-name="Path 377" d="M126.583,207.936,98.591,191.77,70.6,207.936l27.991,16.153Z" transform="translate(-64.991 -89.107)" fill="#3c8cdd"/>
          <path id="Path_378" data-name="Path 378" d="M126.583,207.936,98.591,191.77,70.6,207.936l27.991,16.153Z" transform="translate(-64.991 -89.107)" opacity="0.4"/>
          <path id="Path_379" data-name="Path 379" d="M98.591,301.077V219.653L70.6,203.5v81.411Z" transform="translate(-64.991 -84.671)" opacity="0.2"/>
          <path id="Path_380" data-name="Path 380" d="M97.056,235.331v-68.58L74.66,153.52V222.4Z" transform="translate(-63.455 -103.574)" fill="#3c8cdd"/>
          <path id="Path_381" data-name="Path 381" d="M90.91,235.331v-68.58l22.382-13.231V222.4Z" transform="translate(-57.309 -103.574)" fill="#3c8cdd"/>
          <path id="Path_382" data-name="Path 382" d="M119.438,157.026,97.056,144.25l-22.4,12.776,22.4,13.231Z" transform="translate(-63.455 -107.08)" fill="#3c8cdd"/>
          <path id="Path_383" data-name="Path 383" d="M119.438,157.026,97.056,144.25l-22.4,12.776,22.4,13.231Z" transform="translate(-63.455 -107.08)" opacity="0.4"/>
          <path id="Path_384" data-name="Path 384" d="M97.056,235.331v-68.58L74.66,153.52V222.4Z" transform="translate(-63.455 -103.574)" opacity="0.2"/>
          <path id="Path_385" data-name="Path 385" d="M90.91,164.369V154.68l13.989-8.09v9.7Z" transform="translate(-57.309 -106.195)" fill="#3c8cdd"/>
          <path id="Path_386" data-name="Path 386" d="M80.75,156.293v-9.7l14,8.09v9.689Z" transform="translate(-61.152 -106.195)" fill="#3c8cdd"/>
          <path id="Path_387" data-name="Path 387" d="M80.75,156.293v-9.7l14,8.09v9.689Z" transform="translate(-61.152 -106.195)" opacity="0.2"/>
          <path id="Path_388" data-name="Path 388" d="M108.741,148.806,94.753,140.73l-14,8.076,14,8.09Z" transform="translate(-61.152 -108.411)" fill="#3c8cdd"/>
          <path id="Path_389" data-name="Path 389" d="M108.741,148.806,94.753,140.73l-14,8.076,14,8.09Z" transform="translate(-61.152 -108.411)" opacity="0.4"/>
          <path id="Path_390" data-name="Path 390" d="M90.91,162.527V117.28l8.393,40.4Z" transform="translate(-57.309 -117.28)" fill="#3c8cdd"/>
          <path id="Path_391" data-name="Path 391" d="M90.91,162.527V117.28l8.393,40.4Z" transform="translate(-57.309 -117.28)" opacity="0.1"/>
          <path id="Path_392" data-name="Path 392" d="M84.74,157.675l8.5-40.4v45.247Z" transform="translate(-59.643 -117.28)" fill="#3c8cdd"/>
          <path id="Path_393" data-name="Path 393" d="M84.74,157.675l8.5-40.4v45.247Z" transform="translate(-59.643 -117.28)" opacity="0.25"/>
        </g>
        <path id="Path_394" data-name="Path 394" d="M443.852,436.926a.935.935,0,0,1-.317-.069c-.179-.1-18.716-9.4-47.217-10.709s-42.091,4.135-42.228,4.135a.7.7,0,0,1-.91-.91l41.911-103.586L297.1,314.362a.7.7,0,0,1-.565-.965l15.532-38.425L113.8,251.433a.675.675,0,0,1-.606-.772.7.7,0,0,1,.772-.62l199.193,23.691a.658.658,0,0,1,.51.965L298.12,313.136l97.991,11.425a.717.717,0,0,1,.524.331.731.731,0,0,1,0,.634L354.958,428.492c4.259-1.378,17.558-4.824,41.346-3.735,28.818,1.309,47.6,10.75,47.8,10.846a.689.689,0,0,1,.3.937.7.7,0,0,1-.551.386Z" transform="translate(2.84 -67.07)" fill="#455a64"/>
      </g>
    </g>
    <g id="freepik--Locators--inject-33" transform="translate(84.211 28.149)">
      <g id="freepik--Pin--inject-33">
        <path id="Path_395" data-name="Path 395" d="M76.278,89.012V84.877A51.587,51.587,0,0,1,78.9,69.29h0c4.259-13.162,13.231-25.759,23.609-31.7,6.6-3.818,12.624-4.286,17.241-2l-9.082-5.223a13.438,13.438,0,0,0-7.553-2.219,9.91,9.91,0,0,0-1.268.069,10.257,10.257,0,0,0-1.378.152,11.1,11.1,0,0,0-1.378.248,13.7,13.7,0,0,0-1.378.372,23.2,23.2,0,0,0-2.853,1.047c-.482.207-.965.455-1.461.689s-.992.524-1.475.8c-14.4,8.324-26.131,29.494-26.131,47.41v4.135c0,17.82,23.967,37.212,23.967,37.212L99.4,125.8a4.131,4.131,0,0,1-.482-.372C91.824,118.657,76.278,102.725,76.278,89.012ZM104.89,51.538a10.86,10.86,0,0,1,.165,1.378V53.4a7.881,7.881,0,0,1,0,.813c0,8.352-5.857,18.523-13.107,22.7l-.786.427c-.262.138-.524.248-.772.358l-.758.317H89.55c1.13,6.395,6.45,8.628,12.9,4.934,7.236-4.135,13.093-14.361,13.093-22.713C115.6,52.834,110.982,49.32,104.89,51.538Z" transform="translate(-65.79 -28.149)" fill="#3c8cdd"/>
        <path id="Path_396" data-name="Path 396" d="M76.278,89.012V84.877A51.587,51.587,0,0,1,78.9,69.29h0c4.259-13.162,13.231-25.759,23.609-31.7,6.6-3.818,12.624-4.286,17.241-2l-9.082-5.223a13.438,13.438,0,0,0-7.553-2.219,9.91,9.91,0,0,0-1.268.069,10.257,10.257,0,0,0-1.378.152,11.1,11.1,0,0,0-1.378.248,13.7,13.7,0,0,0-1.378.372,23.2,23.2,0,0,0-2.853,1.047c-.482.207-.965.455-1.461.689s-.992.524-1.475.8c-14.4,8.324-26.131,29.494-26.131,47.41v4.135c0,17.82,23.967,37.212,23.967,37.212L99.4,125.8a4.131,4.131,0,0,1-.482-.372C91.824,118.657,76.278,102.725,76.278,89.012Z" transform="translate(-65.79 -28.149)" opacity="0.3"/>
        <path id="Path_397" data-name="Path 397" d="M98.369,45.3a10.861,10.861,0,0,1,.165,1.378v.482a7.881,7.881,0,0,1,0,.813c0,8.352-5.857,18.523-13.107,22.7l-.786.427c-.262.138-.524.248-.772.358l-.758.317H83.03c1.13,6.395,6.45,8.628,12.9,4.934,7.236-4.135,13.093-14.361,13.093-22.713C109.078,46.6,104.461,43.082,98.369,45.3Z" transform="translate(-59.27 -21.911)" opacity="0.5"/>
        <path id="Path_398" data-name="Path 398" d="M125.812,53.03c0-17.82-11.729-25.5-26.186-17.131S73.44,65.475,73.44,83.3V87.43c0,13.782,15.546,29.645,22.7,36.247a3.528,3.528,0,0,0,5.513-1.047c6.174-12.638,24.16-50.718,24.16-65.479ZM99.626,81.3c-7.236,4.135-13.107.8-13.107-7.566S92.363,55.235,99.6,51.1s13.107-.8,13.107,7.566S106.834,77.121,99.6,81.3Z" transform="translate(-62.897 -26.499)" fill="#3c8cdd"/>
        <path id="Path_399" data-name="Path 399" d="M125.812,53.03c0-17.82-11.729-25.5-26.186-17.131S73.44,65.475,73.44,83.3V87.43c0,13.782,15.546,29.645,22.7,36.247a3.528,3.528,0,0,0,5.513-1.047c6.174-12.638,24.16-50.718,24.16-65.479ZM99.626,81.3c-7.236,4.135-13.107.8-13.107-7.566S92.363,55.235,99.6,51.1s13.107-.8,13.107,7.566S106.834,77.121,99.6,81.3Z" transform="translate(-62.897 -26.499)" fill="#3c8cdd"/>
      </g>
      <g id="freepik--pin--inject-33-2" data-name="freepik--pin--inject-33" transform="translate(232.38 152.927)">
        <path id="Path_400" data-name="Path 400" d="M237.9,159.149v-1.378a16.9,16.9,0,0,1,.868-5.127h0a19.143,19.143,0,0,1,7.759-10.433,5.926,5.926,0,0,1,5.664-.662l-2.991-1.723a4.4,4.4,0,0,0-2.467-.717h-.91a2.633,2.633,0,0,0-.455.083l-.441.11a6.517,6.517,0,0,0-.937.358l-.482.221-.5.262c-4.755,2.756-8.614,9.647-8.614,15.574V157.1c0,5.857,7.883,12.225,7.883,12.225l3.184,1.805-.152-.124C243.014,168.879,237.9,163.656,237.9,159.149Zm9.413-12.321q.011.227,0,.455v.152a1.847,1.847,0,0,1,0,.276A9.523,9.523,0,0,1,243,155.166l-.248.138-.262.124-.248.1h0c.358,2.095,2.109,2.825,4.231,1.613a9.537,9.537,0,0,0,4.3-7.456c.055-2.453-1.461-3.583-3.459-2.853Z" transform="translate(-234.4 -139.11)" fill="#3c8cdd"/>
        <path id="Path_401" data-name="Path 401" d="M237.9,159.149v-1.378a16.9,16.9,0,0,1,.868-5.127h0a19.143,19.143,0,0,1,7.759-10.433,5.926,5.926,0,0,1,5.664-.662l-2.991-1.723a4.4,4.4,0,0,0-2.467-.717h-.91a2.633,2.633,0,0,0-.455.083l-.441.11a6.517,6.517,0,0,0-.937.358l-.482.221-.5.262c-4.755,2.756-8.614,9.647-8.614,15.574V157.1c0,5.857,7.883,12.225,7.883,12.225l3.184,1.805-.152-.124C243.014,168.879,237.9,163.656,237.9,159.149Z" transform="translate(-234.4 -139.11)" fill="#fff" opacity="0.6"/>
        <path id="Path_402" data-name="Path 402" d="M245.132,144.77q.011.227,0,.455v.427a9.51,9.51,0,0,1-4.3,7.456l-.262.138-.248.124-.262.1h0c.372,2.095,2.122,2.825,4.231,1.613a9.51,9.51,0,0,0,4.3-7.456C248.646,145.17,247.144,144.04,245.132,144.77Z" transform="translate(-232.259 -137.052)" fill="#fff" opacity="0.6"/>
        <path id="Path_403" data-name="Path 403" d="M254.159,147.311c0-5.857-3.859-8.38-8.614-5.637S237,151.4,237,157.262v1.378c0,4.507,5.1,9.73,7.456,11.908a1.158,1.158,0,0,0,1.833-.345c2.026-4.135,7.939-16.663,7.939-21.514Zm-8.614,9.289c-2.384,1.378-4.314.262-4.314-2.481a9.523,9.523,0,0,1,4.314-7.442c2.371-1.378,4.3-.262,4.3,2.495a9.524,9.524,0,0,1-4.3,7.429Z" transform="translate(-233.417 -138.559)" fill="#3c8cdd"/>
        <path id="Path_404" data-name="Path 404" d="M254.159,147.311c0-5.857-3.859-8.38-8.614-5.637S237,151.4,237,157.262v1.378c0,4.507,5.1,9.73,7.456,11.908a1.158,1.158,0,0,0,1.833-.345c2.026-4.135,7.939-16.663,7.939-21.514Zm-8.614,9.289c-2.384,1.378-4.314.262-4.314-2.481a9.523,9.523,0,0,1,4.314-7.442c2.371-1.378,4.3-.262,4.3,2.495a9.524,9.524,0,0,1-4.3,7.429Z" transform="translate(-233.417 -138.559)" fill="#3c8cdd"/>
        <g id="Group_18" data-name="Group 18" transform="translate(3.583 2.007)" opacity="0.8">
          <path id="Path_405" data-name="Path 405" d="M254.159,147.311c0-5.857-3.859-8.38-8.614-5.637S237,151.4,237,157.262v1.378c0,4.507,5.1,9.73,7.456,11.908a1.158,1.158,0,0,0,1.833-.345c2.026-4.135,7.939-16.663,7.939-21.514Zm-8.614,9.289c-2.384,1.378-4.314.262-4.314-2.481a9.523,9.523,0,0,1,4.314-7.442c2.371-1.378,4.3-.262,4.3,2.495a9.524,9.524,0,0,1-4.3,7.429Z" transform="translate(-237 -140.566)" fill="#fff"/>
        </g>
      </g>
      <g id="freepik--pin--inject-33-3" data-name="freepik--pin--inject-33" transform="translate(392.955 243.02)">
        <path id="Path_406" data-name="Path 406" d="M354.356,224.492v-1.378a16.9,16.9,0,0,1,.868-5.127h0a19.143,19.143,0,0,1,7.759-10.433,5.926,5.926,0,0,1,5.664-.662l-2.991-1.7a4.438,4.438,0,0,0-2.481-.717h-.854l-.441.083-.455.11a8.07,8.07,0,0,0-.937.358l-.469.221-.5.262c-4.755,2.756-8.614,9.716-8.614,15.574v1.378c0,5.857,7.883,12.225,7.883,12.225l3.184,1.805-.152-.124C359.469,234.139,354.356,228.93,354.356,224.492Zm9.413-12.321q.011.227,0,.455v.152a1.847,1.847,0,0,1,0,.276,9.524,9.524,0,0,1-4.314,7.456l-.248.138-.262.124-.248.1h0c.372,2.095,2.122,2.756,4.245,1.613a9.537,9.537,0,0,0,4.3-7.456c.041-2.495-1.475-3.652-3.473-2.936Z" transform="translate(-350.91 -204.48)" fill="#3c8cdd"/>
        <path id="Path_407" data-name="Path 407" d="M354.356,224.492v-1.378a16.9,16.9,0,0,1,.868-5.127h0a19.143,19.143,0,0,1,7.759-10.433,5.926,5.926,0,0,1,5.664-.662l-2.991-1.7a4.438,4.438,0,0,0-2.481-.717h-.854l-.441.083-.455.11a8.07,8.07,0,0,0-.937.358l-.469.221-.5.262c-4.755,2.756-8.614,9.716-8.614,15.574v1.378c0,5.857,7.883,12.225,7.883,12.225l3.184,1.805-.152-.124C359.469,234.139,354.356,228.93,354.356,224.492Z" transform="translate(-350.91 -204.48)" fill="#fff" opacity="0.6"/>
        <path id="Path_408" data-name="Path 408" d="M361.6,210.058q.011.227,0,.455v.427a9.51,9.51,0,0,1-4.3,7.456l-.262.138-.248.124-.262.1h0c.372,2.095,2.122,2.756,4.231,1.612a9.51,9.51,0,0,0,4.3-7.456C365.116,210.5,363.6,209.341,361.6,210.058Z" transform="translate(-348.784 -202.449)" fill="#fff" opacity="0.6"/>
        <path id="Path_409" data-name="Path 409" d="M370.651,212.611c0-5.857-3.859-8.38-8.614-5.637s-8.628,9.73-8.628,15.588v1.378c0,4.507,5.113,9.73,7.47,11.908a1.158,1.158,0,0,0,1.833-.345c2.026-4.135,7.939-16.663,7.939-21.514Zm-8.614,9.289c-2.384,1.378-4.314.262-4.314-2.481a9.523,9.523,0,0,1,4.314-7.47c2.371-1.378,4.3-.262,4.3,2.495A9.524,9.524,0,0,1,362.038,221.9Z" transform="translate(-349.965 -203.955)" fill="#3c8cdd"/>
        <path id="Path_410" data-name="Path 410" d="M370.651,212.611c0-5.857-3.859-8.38-8.614-5.637s-8.628,9.73-8.628,15.588v1.378c0,4.507,5.113,9.73,7.47,11.908a1.158,1.158,0,0,0,1.833-.345c2.026-4.135,7.939-16.663,7.939-21.514Zm-8.614,9.289c-2.384,1.378-4.314.262-4.314-2.481a9.523,9.523,0,0,1,4.314-7.47c2.371-1.378,4.3-.262,4.3,2.495A9.524,9.524,0,0,1,362.038,221.9Z" transform="translate(-349.965 -203.955)" fill="#3c8cdd"/>
        <g id="Group_19" data-name="Group 19" transform="translate(3.445 1.91)" opacity="0.8">
          <path id="Path_411" data-name="Path 411" d="M370.651,212.611c0-5.857-3.859-8.38-8.614-5.637s-8.628,9.73-8.628,15.588v1.378c0,4.507,5.113,9.73,7.47,11.908a1.158,1.158,0,0,0,1.833-.345c2.026-4.135,7.939-16.663,7.939-21.514Zm-8.614,9.289c-2.384,1.378-4.314.262-4.314-2.481a9.523,9.523,0,0,1,4.314-7.47c2.371-1.378,4.3-.262,4.3,2.495A9.524,9.524,0,0,1,362.038,221.9Z" transform="translate(-353.41 -205.866)" fill="#fff"/>
        </g>
      </g>
    </g>
    <g id="freepik--Arrow--inject-33" transform="translate(552.146 561.609)">
      <g id="freepik--arrow--inject-33-2" data-name="freepik--arrow--inject-33" transform="translate(0 0)">
        <path id="Path_412" data-name="Path 412" d="M495.674,448.437h0V436.35L405.36,415.58v12.073h0a1.723,1.723,0,0,0,.414.992l35.158,49.312c.868,1.213,1.805,1.006,2.081-.455l4.452-23.14a3.652,3.652,0,0,1,3.2-2.756l43.855-2.756C495.288,448.7,495.66,448.588,495.674,448.437Z" transform="translate(-405.296 -415.079)" fill="#3c8cdd"/>
        <path id="Path_413" data-name="Path 413" d="M495.674,448.437h0V436.35L405.36,415.58v12.073h0a1.723,1.723,0,0,0,.414.992l35.158,49.312c.868,1.213,1.805,1.006,2.081-.455l4.452-23.14a3.652,3.652,0,0,1,3.2-2.756l43.855-2.756C495.288,448.7,495.66,448.588,495.674,448.437Z" transform="translate(-405.296 -415.079)" opacity="0.3"/>
        <path id="Path_414" data-name="Path 414" d="M431.74,473.086c.593.276,1.116-.11,1.309-1.144L437.5,448.8a3.5,3.5,0,0,1,.73-1.489V430.32l-6.491,9.51Z" transform="translate(-395.319 -409.504)" opacity="0.2"/>
        <path id="Path_415" data-name="Path 415" d="M443.044,465.554l4.452-23.071a3.652,3.652,0,0,1,3.2-2.756l43.868-2.756c1.475-.1,1.5-.455,0-.8L406.8,415.3c-1.447-.345-1.916.358-1.047,1.571l35.158,49.312C441.831,467.29,442.768,467.014,443.044,465.554Z" transform="translate(-405.314 -415.216)" fill="#3c8cdd"/>
      </g>
    </g>
  </g>
</svg>
