<svg id="epicRect" xmlns="http://www.w3.org/2000/svg" width="1375.768" height="553.478" viewBox="0 0 1375.768 553.478">
  <path id="Path_471" data-name="Path 471" d="M1370.169,50.731s12.336,5.565,0-7.294c-1.6-1.667.4,16.212,0,7.294-.425-9.676-7.2-46.384-76.085-49.473-128.266-5.753-233.218,16.075-461.04,16.075S504.423,5.792,382.8,1.258C211.019-5.145,58.5,19.14,45.8,25.237S19.367,35.684,10.569,51.577,0,93.39,0,93.39Z" transform="translate(1375.652 553.67) rotate(180)" fill="#27292c"/>
  <path id="Path_473" data-name="Path 473" d="M54,0H1315a54,54,0,0,1,54,54l3.665,374.171c0,29.823-27.842,64.829-57.665,64.829H54A54,54,0,0,1,0,439V54A54,54,0,0,1,54,0Z" transform="translate(3.103 32.005)" fill="#27292c"/>
  <path id="Path_470" data-name="Path 470" d="M9323.351,286a128.316,128.316,0,0,1,19.257-26.235c2.253-2.349-33.939-.874-19.257-6.876,7.281-2.979,31.938-13.986,75.429-15.937,127.167-5.7,231.216,15.937,457.081,15.937s325.8-11.442,446.38-15.937c129.767-4.837,250.912,11.583,315.274,25.122,19.79,4.163,24.572,6.959,33.558,9.788,14.682,10.487,30.675,56.43,30.675,56.43Z" transform="translate(-9313.18 -235.995)" fill="#27292c"/>
</svg>
