<svg id="unweighted_icon" xmlns="http://www.w3.org/2000/svg" width="83" height="83" viewBox="0 0 83 83">
  <rect id="Rectangle_91" data-name="Rectangle 91" width="83" height="83" rx="33" fill="#15171a"/>
  <g id="speed" transform="translate(18 18.999)">
    <path id="Path_467" data-name="Path 467" d="M43.91,0c-8.98-.161-19.221,4.533-25.7,11.815a24.323,24.323,0,0,0-16.668,7.1.958.958,0,0,0,.537,1.631l7.387,1.058L8.55,22.628a.958.958,0,0,0,.038,1.317L20.907,36.264a.961.961,0,0,0,1.317.036l1.022-.912L24.3,42.775a.954.954,0,0,0,.679.74.881.881,0,0,0,.274.042A1.082,1.082,0,0,0,26,43.248a24.272,24.272,0,0,0,7.036-16.607c7.289-6.5,12.022-16.733,11.813-25.7A.963.963,0,0,0,43.91,0ZM35.078,16.55a4.792,4.792,0,1,1,0-6.778A4.777,4.777,0,0,1,35.078,16.55Z" transform="translate(1.149 0)" fill="#98999a"/>
    <path id="Path_468" data-name="Path 468" d="M5.221,17.733C3.17,19.784.355,29.05.04,30.1a.959.959,0,0,0,.918,1.234.981.981,0,0,0,.276-.04c1.048-.314,10.314-3.13,12.365-5.181a5.924,5.924,0,1,0-8.378-8.378Z" transform="translate(0 14.668)" fill="#98999a"/>
  </g>
</svg>
