<svg xmlns="http://www.w3.org/2000/svg" width="47.977" height="51.009" viewBox="0 0 47.977 51.009">
  <g id="coding" transform="translate(-14.219)">
    <path id="Path_28" data-name="Path 28" d="M131.925,119.157a12.8,12.8,0,1,0,11.615,7.421A12.816,12.816,0,0,0,131.925,119.157Zm-4.72,14.864A.853.853,0,0,1,126,135.227l-2.667-2.667a.853.853,0,0,1,0-1.206L126,128.688a.853.853,0,1,1,1.206,1.206l-2.064,2.063Zm7.6-5.256-4.265,7.25a.853.853,0,1,1-1.47-.865l4.265-7.25a.853.853,0,1,1,1.47.865Zm5.626,3.8-2.667,2.667a.853.853,0,0,1-1.206-1.206l2.064-2.064-2.064-2.063a.853.853,0,0,1,1.206-1.206l2.667,2.667A.853.853,0,0,1,140.426,132.561Z" transform="translate(-93.725 -106.453)" fill="#f2f2f2"/>
    <path id="Path_29" data-name="Path 29" d="M61.868,34.064,57.86,30.931a20.492,20.492,0,0,0,0-10.853l4.009-3.133a.853.853,0,0,0,.213-1.1L58.509,9.658a.853.853,0,0,0-1.058-.365L52.727,11.2a20.269,20.269,0,0,0-9.393-5.429L42.625.733A.851.851,0,0,0,41.78,0H34.635a.851.851,0,0,0-.844.734l-.71,5.038A20.269,20.269,0,0,0,23.688,11.2L18.965,9.294a.855.855,0,0,0-1.059.365l-3.573,6.188a.853.853,0,0,0,.213,1.1l4.009,3.133a20.492,20.492,0,0,0,0,10.853l-4.009,3.133a.853.853,0,0,0-.213,1.1l3.573,6.188a.855.855,0,0,0,1.059.365l4.723-1.906a20.269,20.269,0,0,0,9.393,5.429l.71,5.038a.851.851,0,0,0,.844.734H41.78a.851.851,0,0,0,.844-.734l.71-5.038a20.269,20.269,0,0,0,9.393-5.429l4.724,1.906a.854.854,0,0,0,1.058-.365l3.573-6.188A.853.853,0,0,0,61.868,34.064ZM44.3,38.66a14.5,14.5,0,1,1,7.058-19.252A14.555,14.555,0,0,1,44.3,38.66Z" fill="#f2f2f2"/>
  </g>
</svg>
