<svg xmlns="http://www.w3.org/2000/svg" width="50.322" height="40.002" viewBox="0 0 50.322 40.002">
  <g id="dashboard" transform="translate(0 -52.499)">
    <g id="Group_10" data-name="Group 10" transform="translate(0 52.499)">
      <g id="Group_9" data-name="Group 9">
        <path id="Path_25" data-name="Path 25" d="M219.53,124.074a1.966,1.966,0,0,0-2.5-.234c-2.941,2-17.694,12.086-19.28,13.671a5.9,5.9,0,0,0,8.34,8.34c1.585-1.586,11.666-16.338,13.671-19.28A1.966,1.966,0,0,0,219.53,124.074Zm-16.217,19a1.966,1.966,0,0,1-2.78-2.779c.616-.609,4.8-3.6,9.958-7.178C206.909,138.267,203.921,142.455,203.313,143.071Z" transform="translate(-176.762 -116.52)" fill="#f2f2f2"/>
        <path id="Path_26" data-name="Path 26" d="M9.065,86.8,6.638,87.986A21.13,21.13,0,0,1,5.313,70.123l2.781,1.334a1.966,1.966,0,1,0,1.7-3.545L7.049,66.6A21.257,21.257,0,0,1,23.2,56.521v2.956a1.966,1.966,0,1,0,3.931,0V56.519A20.986,20.986,0,0,1,33.886,58.3,1.966,1.966,0,1,0,35.5,54.717,25.14,25.14,0,0,0,4.263,91.628a1.965,1.965,0,0,0,2.5.674l4.03-1.966A1.966,1.966,0,1,0,9.065,86.8Z" transform="translate(0 -52.499)" fill="#f2f2f2"/>
        <path id="Path_27" data-name="Path 27" d="M399.768,192.651a1.966,1.966,0,1,0-3.583,1.617,21.161,21.161,0,0,1-.846,19.066l-2.533-1.206a1.966,1.966,0,1,0-1.69,3.55l4.128,1.966a1.965,1.965,0,0,0,2.479-.682,25.1,25.1,0,0,0,2.045-24.31Z" transform="translate(-351.664 -177.833)" fill="#f2f2f2"/>
      </g>
    </g>
  </g>
</svg>
