<svg xmlns="http://www.w3.org/2000/svg" width="57.91" height="56.436" viewBox="0 0 57.91 56.436">
  <path id="white_github" d="M28.942,0A28.932,28.932,0,0,0,19.8,56.385c1.447.268,1.912-.629,1.912-1.391V49.608c-8.048,1.746-9.723-3.414-9.723-3.414a7.662,7.662,0,0,0-3.214-4.243c-2.626-1.8.2-1.758.2-1.758a6.073,6.073,0,0,1,4.434,2.982,6.158,6.158,0,0,0,8.419,2.411,6.138,6.138,0,0,1,1.837-3.858c-6.425-.743-13.181-3.223-13.181-14.307a11.2,11.2,0,0,1,2.98-7.766A10.406,10.406,0,0,1,13.753,12s2.411-.776,7.956,2.965a27.422,27.422,0,0,1,14.487,0C41.721,11.223,44.153,12,44.153,12a10.4,10.4,0,0,1,.285,7.657,11.168,11.168,0,0,1,2.978,7.766c0,11.112-6.768,13.559-13.21,14.275a6.915,6.915,0,0,1,1.97,5.357v7.939c0,.769.463,1.673,1.929,1.389A28.932,28.932,0,0,0,28.942,0Z" transform="translate(0.008)" fill="#f2f2f2"/>
</svg>
