<svg xmlns="http://www.w3.org/2000/svg" width="15.938" height="51" viewBox="0 0 15.938 51">
  <g id="info" transform="translate(-176)">
    <path id="Path_50" data-name="Path 50" d="M183.969,223.875A7.978,7.978,0,0,1,176,215.906V199.969a7.969,7.969,0,0,1,15.938,0v15.938A7.978,7.978,0,0,1,183.969,223.875Zm0-28.688a4.787,4.787,0,0,0-4.781,4.781v15.938a4.781,4.781,0,0,0,9.563,0V199.969A4.787,4.787,0,0,0,183.969,195.188Z" transform="translate(0 -172.875)" fill="#f2f2f2"/>
    <path id="Path_51" data-name="Path 51" d="M183.969,15.938a7.969,7.969,0,1,1,7.969-7.969A7.978,7.978,0,0,1,183.969,15.938Zm0-12.75a4.781,4.781,0,1,0,4.781,4.781A4.787,4.787,0,0,0,183.969,3.188Z" fill="#f2f2f2"/>
  </g>
</svg>
