<svg id="maze" xmlns="http://www.w3.org/2000/svg" width="48.322" height="48.322" viewBox="0 0 48.322 48.322">
  <path id="Path_30" data-name="Path 30" d="M9.06,48.322H1.007A1.007,1.007,0,0,1,0,47.315V1.007A1.007,1.007,0,0,1,1.007,0H35.234a1.007,1.007,0,0,1,0,2.013H2.013V46.308H9.06a1.007,1.007,0,1,1,0,2.013Z" fill="#f2f2f2"/>
  <path id="Path_31" data-name="Path 31" d="M39.208,48.322H9.007a1.007,1.007,0,1,1,0-2.013H38.2V2.013h-3.02a1.007,1.007,0,1,1,0-2.013h4.027a1.007,1.007,0,0,1,1.007,1.007V47.315A1.007,1.007,0,0,1,39.208,48.322Z" transform="translate(8.107)" fill="#f2f2f2"/>
  <path id="Path_32" data-name="Path 32" d="M24.047,32.147h-6.04a1.007,1.007,0,1,1,0-2.013H23.04V11.007a1.007,1.007,0,1,1,2.013,0V31.141A1.007,1.007,0,0,1,24.047,32.147Z" transform="translate(17.228 10.134)" fill="#f2f2f2"/>
  <path id="Path_33" data-name="Path 33" d="M34.141,11.054H28.1a1.007,1.007,0,0,1-1.007-1.007V5.013H14.007a1.007,1.007,0,0,1,0-2.013H28.1a1.007,1.007,0,0,1,1.007,1.007V9.04h5.033a1.007,1.007,0,0,1,0,2.013Z" transform="translate(13.174 3.04)" fill="#f2f2f2"/>
  <path id="Path_34" data-name="Path 34" d="M4.007,15.08A1.007,1.007,0,0,1,3,14.074V4.007A1.007,1.007,0,0,1,4.007,3H18.1a1.007,1.007,0,1,1,0,2.013H5.013v9.06A1.007,1.007,0,0,1,4.007,15.08Z" transform="translate(3.04 3.04)" fill="#f2f2f2"/>
  <path id="Path_35" data-name="Path 35" d="M24.141,30.121H4.007A1.007,1.007,0,0,1,3,29.114V13.007A1.007,1.007,0,0,1,4.007,12h6.04a1.007,1.007,0,1,1,0,2.013H5.013V28.107H24.141a1.007,1.007,0,1,1,0,2.013Z" transform="translate(3.04 12.161)" fill="#f2f2f2"/>
  <path id="Path_36" data-name="Path 36" d="M29.154,12.04a1.007,1.007,0,0,1-1.007-1.007V8.013H7.007A1.007,1.007,0,0,1,7.007,6H29.154a1.007,1.007,0,0,1,1.007,1.007v4.027A1.007,1.007,0,0,1,29.154,12.04Z" transform="translate(6.08 6.08)" fill="#f2f2f2"/>
  <path id="Path_37" data-name="Path 37" d="M29.154,26.107H7.007A1.007,1.007,0,0,1,6,25.1V11.007a1.007,1.007,0,0,1,2.013,0V24.094H28.147v-9.06a1.007,1.007,0,1,1,2.013,0V25.1A1.007,1.007,0,0,1,29.154,26.107Z" transform="translate(6.08 10.134)" fill="#f2f2f2"/>
  <path id="Path_38" data-name="Path 38" d="M20.074,21.08H10.007A1.007,1.007,0,0,1,9,20.074V10.007A1.007,1.007,0,0,1,10.007,9H20.074a1.007,1.007,0,0,1,0,2.013h-9.06v8.054h8.054V18.06a1.007,1.007,0,1,1,2.013,0v2.013A1.007,1.007,0,0,1,20.074,21.08Z" transform="translate(9.121 9.121)" fill="#f2f2f2"/>
  <path id="Path_39" data-name="Path 39" d="M7.007,8.054A1.007,1.007,0,0,1,6,7.047V1.007a1.007,1.007,0,0,1,2.013,0v6.04A1.007,1.007,0,0,1,7.007,8.054Z" transform="translate(6.08)" fill="#f2f2f2"/>
  <path id="Path_40" data-name="Path 40" d="M7.047,18.013H1.007a1.007,1.007,0,0,1,0-2.013h6.04a1.007,1.007,0,0,1,0,2.013Z" transform="translate(0 16.214)" fill="#f2f2f2"/>
  <path id="Path_41" data-name="Path 41" d="M16.007,11.054A1.007,1.007,0,0,1,15,10.047V4.007a1.007,1.007,0,1,1,2.013,0v6.04A1.007,1.007,0,0,1,16.007,11.054Z" transform="translate(15.201 3.04)" fill="#f2f2f2"/>
</svg>
