<svg xmlns="http://www.w3.org/2000/svg" width="55.134" height="55.134" viewBox="0 0 55.134 55.134">
  <g id="settings" transform="translate(0 0)">
    <path id="Path_48" data-name="Path 48" d="M29.3,55.134h-3.46a5.081,5.081,0,0,1-5.076-5.075V48.888a22.258,22.258,0,0,1-3.456-1.435l-.83.83a5.076,5.076,0,0,1-7.179,0L6.851,45.837a5.075,5.075,0,0,1,0-7.179l.829-.829a22.259,22.259,0,0,1-1.435-3.456H5.075A5.081,5.081,0,0,1,0,29.3v-3.46a5.081,5.081,0,0,1,5.076-5.075H6.246a22.264,22.264,0,0,1,1.435-3.456l-.83-.829a5.076,5.076,0,0,1,0-7.179L9.3,6.851a5.075,5.075,0,0,1,7.179,0l.829.829a22.279,22.279,0,0,1,3.456-1.435V5.075A5.081,5.081,0,0,1,25.837,0H29.3a5.081,5.081,0,0,1,5.075,5.075V6.246a22.258,22.258,0,0,1,3.456,1.435l.83-.83a5.076,5.076,0,0,1,7.179,0L48.283,9.3a5.075,5.075,0,0,1,0,7.179l-.829.829a22.26,22.26,0,0,1,1.435,3.456h1.171a5.081,5.081,0,0,1,5.076,5.075V29.3a5.081,5.081,0,0,1-5.076,5.075H48.888a22.264,22.264,0,0,1-1.435,3.456l.83.83a5.076,5.076,0,0,1,0,7.179l-2.446,2.446a5.075,5.075,0,0,1-7.179,0l-.829-.829a22.279,22.279,0,0,1-3.456,1.435v1.171A5.081,5.081,0,0,1,29.3,55.134ZM17.845,44.061A19.04,19.04,0,0,0,22.78,46.11a1.615,1.615,0,0,1,1.212,1.564v2.385A1.847,1.847,0,0,0,25.837,51.9H29.3a1.847,1.847,0,0,0,1.845-1.845V47.674a1.615,1.615,0,0,1,1.212-1.564,19.04,19.04,0,0,0,4.935-2.049,1.615,1.615,0,0,1,1.964.248L40.943,46a1.844,1.844,0,0,0,2.609,0L46,43.552a1.845,1.845,0,0,0,0-2.609l-1.69-1.69a1.615,1.615,0,0,1-.248-1.964,19.037,19.037,0,0,0,2.049-4.935,1.615,1.615,0,0,1,1.564-1.212h2.385A1.847,1.847,0,0,0,51.9,29.3v-3.46a1.847,1.847,0,0,0-1.845-1.845H47.674a1.615,1.615,0,0,1-1.564-1.212,19.04,19.04,0,0,0-2.049-4.935,1.615,1.615,0,0,1,.248-1.964L46,14.191a1.844,1.844,0,0,0,0-2.609L43.553,9.136a1.845,1.845,0,0,0-2.609,0l-1.69,1.69a1.615,1.615,0,0,1-1.964.248,19.04,19.04,0,0,0-4.935-2.049,1.615,1.615,0,0,1-1.212-1.564V5.075A1.847,1.847,0,0,0,29.3,3.231h-3.46a1.847,1.847,0,0,0-1.845,1.845V7.46A1.615,1.615,0,0,1,22.78,9.024a19.04,19.04,0,0,0-4.935,2.049,1.615,1.615,0,0,1-1.964-.248L14.191,9.136a1.844,1.844,0,0,0-2.609,0L9.136,11.582a1.845,1.845,0,0,0,0,2.609l1.69,1.69a1.615,1.615,0,0,1,.248,1.964A19.036,19.036,0,0,0,9.025,22.78a1.615,1.615,0,0,1-1.564,1.212H5.076a1.847,1.847,0,0,0-1.845,1.845V29.3a1.847,1.847,0,0,0,1.845,1.845H7.46a1.615,1.615,0,0,1,1.564,1.212,19.04,19.04,0,0,0,2.049,4.935,1.615,1.615,0,0,1-.248,1.964L9.135,40.943a1.844,1.844,0,0,0,0,2.609L11.582,46a1.845,1.845,0,0,0,2.609,0l1.69-1.69a1.623,1.623,0,0,1,1.965-.248Z" fill="#f2f2f2"/>
    <path id="Path_49" data-name="Path 49" d="M156.6,168.592a12,12,0,1,1,12-12A12.01,12.01,0,0,1,156.6,168.592Zm0-20.761a8.765,8.765,0,1,0,8.765,8.765A8.775,8.775,0,0,0,156.6,147.831Z" transform="translate(-129.029 -129.029)" fill="#f2f2f2"/>
  </g>
</svg>
