<svg xmlns="http://www.w3.org/2000/svg" width="61.352" height="61.352" viewBox="0 0 61.352 61.352">
  <path id="Squiggly-Road-Sign-Arrow" d="M62.486,109.135h8.132V104.81c0-1.124,1.2-1.634,1.819-1.712h0c2.894-.643,6.739-5.926,5.4-11.3-1.122-4.513-4.646-7.169-10.171-8.214-3.026-.573-4.615-1.444-4.686-2.839-.088-1.734,2.293-2.331,4.465-2.977,5.463-1.626,6.877-8.545,6.23-13.2l5.482,1.606a1.572,1.572,0,0,0,1.6-2.584L69.653,48.548,58.487,63.576a1.6,1.6,0,0,0,1.946,2.461l5.334-1.53s.048,3.447-.055,4.589a2.221,2.221,0,0,1-1.881,1.881c-6,1.33-8.676,4.734-8.841,9.144-.223,5.946,2.7,8.752,10.543,11.026.869.252,1.817.552,2.88.813a2.033,2.033,0,0,1,1.654,2.329c0,1.1-.942,1.644-2.205,2.205a9,9,0,0,0-5.072,6.174A23.777,23.777,0,0,0,62.486,109.135Z" transform="translate(38.295 -73.203) rotate(45)" fill="#f2f2f2"/>
</svg>
