<svg xmlns="http://www.w3.org/2000/svg" width="48.322" height="48.323" viewBox="0 0 48.322 48.323">
  <g id="target" transform="translate(0 0)">
    <path id="Path_42" data-name="Path 42" d="M22.667,43.584A20.917,20.917,0,1,1,43.584,22.667,20.917,20.917,0,0,1,22.667,43.584Zm0-37.753A16.836,16.836,0,1,0,39.5,22.666,16.837,16.837,0,0,0,22.667,5.831Z" transform="translate(1.494 1.494)" fill="#f2f2f2"/>
    <path id="Path_43" data-name="Path 43" d="M12.853,10.194A1.854,1.854,0,0,1,11,8.341V1.853a1.853,1.853,0,1,1,3.707,0V8.341a1.854,1.854,0,0,1-1.854,1.853Z" transform="translate(11.307)" fill="#f2f2f2"/>
    <path id="Path_44" data-name="Path 44" d="M26.841,14.707H20.353a1.853,1.853,0,1,1,0-3.707H26.84a1.853,1.853,0,1,1,0,3.707Z" transform="translate(19.628 11.307)" fill="#f2f2f2"/>
    <path id="Path_45" data-name="Path 45" d="M12.853,28.694A1.854,1.854,0,0,1,11,26.841V20.353a1.853,1.853,0,1,1,3.707,0V26.84a1.854,1.854,0,0,1-1.854,1.854Z" transform="translate(11.307 19.628)" fill="#f2f2f2"/>
    <path id="Path_46" data-name="Path 46" d="M8.341,14.707H1.853a1.853,1.853,0,1,1,0-3.707H8.341a1.853,1.853,0,1,1,0,3.707Z" transform="translate(0 11.307)" fill="#f2f2f2"/>
    <path id="Path_47" data-name="Path 47" d="M14.56,20.121a5.56,5.56,0,1,1,5.56-5.56,5.56,5.56,0,0,1-5.56,5.56Zm0-7.414a1.853,1.853,0,1,0,1.853,1.853,1.853,1.853,0,0,0-1.853-1.853Z" transform="translate(9.6 9.6)" fill="#f2f2f2"/>
  </g>
</svg>
